<svg width="365" height="365" viewBox="0 0 365 365" fill="none" xmlns="http://www.w3.org/2000/svg">
<g opacity="0.6">
<path d="M126.389 256.311C116.812 248.926 108.783 239.728 102.762 229.241C96.74 218.754 92.8427 207.183 91.2934 195.19C89.7431 183.196 90.5707 171.015 93.7278 159.341C96.8859 147.668 102.311 136.73 109.695 127.153C117.08 117.577 126.279 109.549 136.766 103.527C147.253 97.5055 158.824 93.6084 170.817 92.058C182.811 90.5077 194.992 91.3354 206.665 94.4934C218.339 97.6504 229.276 103.076 238.853 110.461M218.967 125.526C228.399 128.833 236.87 134.417 243.63 141.78C250.389 149.144 255.228 158.061 257.718 167.742C260.208 177.422 260.272 187.568 257.905 197.278C255.537 206.99 250.81 215.968 244.145 223.416C237.479 230.864 229.08 236.554 219.69 239.981C210.3 243.408 200.21 244.466 190.313 243.061C180.416 241.657 171.018 237.834 162.953 231.93C154.887 226.027 148.401 218.225 144.071 209.216M91.9845 51.0123C164.736 0.889368 264.345 19.2333 314.468 91.9845C364.591 164.736 346.247 264.345 273.496 314.468C200.744 364.591 101.135 346.247 51.0123 273.496C0.889403 200.744 19.2333 101.135 91.9845 51.0123ZM261.143 81.4728C317.368 124.828 327.802 205.555 284.447 261.781C241.091 318.007 160.365 328.44 104.139 285.085C47.9129 241.729 37.4793 161.003 80.8347 104.777C124.19 48.551 204.917 38.1174 261.143 81.4728Z" stroke="#C6913B" stroke-width="2"/>
<path d="M126.389 256.311C116.812 248.926 108.783 239.728 102.762 229.241C96.74 218.754 92.8427 207.183 91.2934 195.19C89.7431 183.196 90.5707 171.015 93.7278 159.341C96.8859 147.668 102.311 136.73 109.695 127.153C117.08 117.577 126.279 109.549 136.766 103.527C147.253 97.5055 158.824 93.6084 170.817 92.058C182.811 90.5077 194.992 91.3354 206.665 94.4934C218.339 97.6504 229.276 103.076 238.853 110.461M218.967 125.526C228.399 128.833 236.87 134.417 243.63 141.78C250.389 149.144 255.228 158.061 257.718 167.742C260.208 177.422 260.272 187.568 257.905 197.278C255.537 206.99 250.81 215.968 244.145 223.416C237.479 230.864 229.08 236.554 219.69 239.981C210.3 243.408 200.21 244.466 190.313 243.061C180.416 241.657 171.018 237.834 162.953 231.93C154.887 226.027 148.401 218.225 144.071 209.216M91.9845 51.0123C164.736 0.889368 264.345 19.2333 314.468 91.9845C364.591 164.736 346.247 264.345 273.496 314.468C200.744 364.591 101.135 346.247 51.0123 273.496C0.889403 200.744 19.2333 101.135 91.9845 51.0123ZM261.143 81.4728C317.368 124.828 327.802 205.555 284.447 261.781C241.091 318.007 160.365 328.44 104.139 285.085C47.9129 241.729 37.4793 161.003 80.8347 104.777C124.19 48.551 204.917 38.1174 261.143 81.4728Z" stroke="url(#paint0_linear)" stroke-width="2"/>
</g>
<defs>
<linearGradient id="paint0_linear" x1="318.876" y1="2" x2="42.7352" y2="307.603" gradientUnits="userSpaceOnUse">
<stop stop-color="white"/>
<stop offset="1" stop-color="white" stop-opacity="0"/>
</linearGradient>
</defs>
</svg>
