<svg width="71" height="54" viewBox="0 0 71 54" fill="none" xmlns="http://www.w3.org/2000/svg">
<path fill-rule="evenodd" clip-rule="evenodd" d="M69.6761 0.974319C71.3043 2.38957 71.4509 4.82756 70.0036 6.41973L27.9296 52.7054C27.1811 53.5289 26.1082 54 24.9815 54C23.8548 54 22.7819 53.5289 22.0334 52.7054L0.996371 29.5626C-0.450915 27.9704 -0.304258 25.5324 1.32394 24.1172C2.95214 22.7019 5.44531 22.8453 6.89259 24.4375L24.9815 44.3371L64.1074 1.29464C65.5547 -0.297524 68.0479 -0.440935 69.6761 0.974319Z" fill="#C6913B"/>
<path fill-rule="evenodd" clip-rule="evenodd" d="M69.6761 0.974319C71.3043 2.38957 71.4509 4.82756 70.0036 6.41973L27.9296 52.7054C27.1811 53.5289 26.1082 54 24.9815 54C23.8548 54 22.7819 53.5289 22.0334 52.7054L0.996371 29.5626C-0.450915 27.9704 -0.304258 25.5324 1.32394 24.1172C2.95214 22.7019 5.44531 22.8453 6.89259 24.4375L24.9815 44.3371L64.1074 1.29464C65.5547 -0.297524 68.0479 -0.440935 69.6761 0.974319Z" fill="url(#paint0_linear)"/>
<defs>
<linearGradient id="paint0_linear" x1="0" y1="0" x2="41.0086" y2="64.5162" gradientUnits="userSpaceOnUse">
<stop stop-color="white"/>
<stop offset="1" stop-color="white" stop-opacity="0"/>
</linearGradient>
</defs>
</svg>
