<svg width="89" height="68" viewBox="0 0 89 68" fill="none" xmlns="http://www.w3.org/2000/svg">
<path fill-rule="evenodd" clip-rule="evenodd" d="M87.3404 1.22692C89.3814 3.00909 89.5652 6.07916 87.751 8.0841L35.0103 66.3698C34.0721 67.4067 32.7271 68 31.3148 68C29.9025 68 28.5576 67.4067 27.6193 66.3698L1.24897 37.2269C-0.565231 35.222 -0.381394 32.1519 1.65959 30.3698C3.70056 28.5876 6.82581 28.7682 8.64001 30.7731L31.3148 55.8319L80.36 1.63028C82.1742 -0.37466 85.2994 -0.555252 87.3404 1.22692Z" fill="#C6913B"/>
<path fill-rule="evenodd" clip-rule="evenodd" d="M87.3404 1.22692C89.3814 3.00909 89.5652 6.07916 87.751 8.0841L35.0103 66.3698C34.0721 67.4067 32.7271 68 31.3148 68C29.9025 68 28.5576 67.4067 27.6193 66.3698L1.24897 37.2269C-0.565231 35.222 -0.381394 32.1519 1.65959 30.3698C3.70056 28.5876 6.82581 28.7682 8.64001 30.7731L31.3148 55.8319L80.36 1.63028C82.1742 -0.37466 85.2994 -0.555252 87.3404 1.22692Z" fill="url(#paint0_linear)"/>
<defs>
<linearGradient id="paint0_linear" x1="0" y1="0" x2="51.7402" y2="81.0286" gradientUnits="userSpaceOnUse">
<stop stop-color="white"/>
<stop offset="1" stop-color="white" stop-opacity="0"/>
</linearGradient>
</defs>
</svg>
