<svg width="169" height="130" viewBox="0 0 169 130" fill="none" xmlns="http://www.w3.org/2000/svg">
<path fill-rule="evenodd" clip-rule="evenodd" d="M165.849 2.34558C169.724 5.75268 170.073 11.6219 166.628 15.4549L66.4803 126.883C64.6986 128.866 62.1448 130 59.463 130C56.7812 130 54.2274 128.866 52.4457 126.883L2.37164 71.1691C-1.0733 67.3362 -0.72422 61.4669 3.15135 58.0598C7.02691 54.6527 12.9614 54.998 16.4063 58.831L59.463 106.737L152.594 3.11672C156.039 -0.716262 161.973 -1.06151 165.849 2.34558Z" fill="#C6913B"/>
<path fill-rule="evenodd" clip-rule="evenodd" d="M165.849 2.34558C169.724 5.75268 170.073 11.6219 166.628 15.4549L66.4803 126.883C64.6986 128.866 62.1448 130 59.463 130C56.7812 130 54.2274 128.866 52.4457 126.883L2.37164 71.1691C-1.0733 67.3362 -0.72422 61.4669 3.15135 58.0598C7.02691 54.6527 12.9614 54.998 16.4063 58.831L59.463 106.737L152.594 3.11672C156.039 -0.716262 161.973 -1.06151 165.849 2.34558Z" fill="url(#paint0_linear)"/>
<defs>
<linearGradient id="paint0_linear" x1="0" y1="0" x2="99.1952" y2="154.299" gradientUnits="userSpaceOnUse">
<stop stop-color="white"/>
<stop offset="1" stop-color="white" stop-opacity="0"/>
</linearGradient>
</defs>
</svg>
