<svg width="69" height="69" viewBox="0 0 69 69" fill="none" xmlns="http://www.w3.org/2000/svg">
<g opacity="0.3">
<path d="M21.0869 48.0636C19.2797 46.3444 17.829 44.2861 16.8174 42.0063C15.8059 39.7265 15.2532 37.2696 15.1913 34.7763C15.1291 32.2829 15.5588 29.8015 16.4555 27.4741C17.3524 25.1469 18.6987 23.0188 20.4178 21.2117C22.1371 19.4048 24.1953 17.954 26.4753 16.9425C28.7551 15.9309 31.2119 15.3783 33.7053 15.3161C36.1988 15.2539 38.6799 15.6836 41.0074 16.5805C43.3348 17.4772 45.4627 18.8236 47.2698 20.5428M18.409 5.21397C34.4028 -3.51633 54.4456 2.3719 63.1759 18.3657C71.9062 34.3595 66.018 54.4023 50.0242 63.1326C34.0304 71.8629 13.9875 65.9747 5.25725 49.9809C-3.47305 33.9871 2.41519 13.9443 18.409 5.21397ZM52.4608 15.0716C63.0702 25.1653 63.4884 41.9484 53.3947 52.5578C43.3011 63.1672 26.518 63.5854 15.9085 53.4917C5.29913 43.3981 4.88101 26.615 14.9746 16.0056C25.0683 5.39613 41.8514 4.978 52.4608 15.0716Z" stroke="#C6913B" stroke-width="2"/>
<path d="M21.0869 48.0636C19.2797 46.3444 17.829 44.2861 16.8174 42.0063C15.8059 39.7265 15.2532 37.2696 15.1913 34.7763C15.1291 32.2829 15.5588 29.8015 16.4555 27.4741C17.3524 25.1469 18.6987 23.0188 20.4178 21.2117C22.1371 19.4048 24.1953 17.954 26.4753 16.9425C28.7551 15.9309 31.2119 15.3783 33.7053 15.3161C36.1988 15.2539 38.6799 15.6836 41.0074 16.5805C43.3348 17.4772 45.4627 18.8236 47.2698 20.5428M18.409 5.21397C34.4028 -3.51633 54.4456 2.3719 63.1759 18.3657C71.9062 34.3595 66.018 54.4023 50.0242 63.1326C34.0304 71.8629 13.9875 65.9747 5.25725 49.9809C-3.47305 33.9871 2.41519 13.9443 18.409 5.21397ZM52.4608 15.0716C63.0702 25.1653 63.4884 41.9484 53.3947 52.5578C43.3011 63.1672 26.518 63.5854 15.9085 53.4917C5.29913 43.3981 4.88101 26.615 14.9746 16.0056C25.0683 5.39613 41.8514 4.978 52.4608 15.0716Z" stroke="url(#paint0_linear)" stroke-width="2"/>
</g>
<defs>
<linearGradient id="paint0_linear" x1="66" y1="0" x2="2.83159" y2="56.8012" gradientUnits="userSpaceOnUse">
<stop stop-color="white"/>
<stop offset="1" stop-color="white" stop-opacity="0"/>
</linearGradient>
</defs>
</svg>
