<svg width="361" height="360" viewBox="0 0 361 360" fill="none" xmlns="http://www.w3.org/2000/svg">
<g opacity="0.4">
<path d="M253.181 251.51C243.863 260.951 232.777 268.464 220.556 273.62C208.335 278.777 195.217 281.475 181.953 281.561C168.689 281.648 155.537 279.121 143.249 274.126C130.962 269.129 119.778 261.762 110.337 252.445C100.897 243.127 93.3837 232.041 88.2275 219.819C83.0713 207.597 80.3728 194.48 80.2858 181.216C80.1987 167.951 82.7258 154.8 87.7221 142.512C92.7174 130.224 100.084 119.041 109.403 109.6M123.15 133.261C128.01 123.434 135.219 114.956 144.138 108.58C153.057 102.204 163.412 98.1255 174.284 96.707C185.155 95.2886 196.21 96.5725 206.466 100.446C216.723 104.32 225.867 110.665 233.085 118.916C240.305 127.167 245.379 137.071 247.857 147.752C250.334 158.432 250.139 169.559 247.289 180.146C244.439 190.734 239.023 200.455 231.518 208.448C224.014 216.442 214.655 222.461 204.268 225.973M25.0759 261.564C-19.7834 175.668 13.4836 69.6696 99.3798 24.8103C185.276 -20.049 291.274 13.2179 336.134 99.1142C380.993 185.01 347.726 291.009 261.83 335.868C175.934 380.727 69.9353 347.46 25.0759 261.564ZM80.8178 81.4637C135.525 26.0362 224.806 25.4521 280.234 80.1591C335.661 134.866 336.245 224.148 281.538 279.575C226.831 335.002 137.55 335.587 82.1224 280.88C26.695 226.173 26.1109 136.891 80.8178 81.4637Z" stroke="#C6913B" stroke-width="2"/>
<path d="M253.181 251.51C243.863 260.951 232.777 268.464 220.556 273.62C208.335 278.777 195.217 281.475 181.953 281.561C168.689 281.648 155.537 279.121 143.249 274.126C130.962 269.129 119.778 261.762 110.337 252.445C100.897 243.127 93.3837 232.041 88.2275 219.819C83.0713 207.597 80.3728 194.48 80.2858 181.216C80.1987 167.951 82.7258 154.8 87.7221 142.512C92.7174 130.224 100.084 119.041 109.403 109.6M123.15 133.261C128.01 123.434 135.219 114.956 144.138 108.58C153.057 102.204 163.412 98.1255 174.284 96.707C185.155 95.2886 196.21 96.5725 206.466 100.446C216.723 104.32 225.867 110.665 233.085 118.916C240.305 127.167 245.379 137.071 247.857 147.752C250.334 158.432 250.139 169.559 247.289 180.146C244.439 190.734 239.023 200.455 231.518 208.448C224.014 216.442 214.655 222.461 204.268 225.973M25.0759 261.564C-19.7834 175.668 13.4836 69.6696 99.3798 24.8103C185.276 -20.049 291.274 13.2179 336.134 99.1142C380.993 185.01 347.726 291.009 261.83 335.868C175.934 380.727 69.9353 347.46 25.0759 261.564ZM80.8178 81.4637C135.525 26.0362 224.806 25.4521 280.234 80.1591C335.661 134.866 336.245 224.148 281.538 279.575C226.831 335.002 137.55 335.587 82.1224 280.88C26.695 226.173 26.1109 136.891 80.8178 81.4637Z" stroke="url(#paint0_linear)" stroke-width="2"/>
</g>
<defs>
<linearGradient id="paint0_linear" x1="2" y1="8" x2="297.859" y2="349.432" gradientUnits="userSpaceOnUse">
<stop stop-color="white"/>
<stop offset="1" stop-color="white" stop-opacity="0"/>
</linearGradient>
</defs>
</svg>
