<svg width="85" height="85" viewBox="0 0 85 85" fill="none" xmlns="http://www.w3.org/2000/svg">
<g opacity="0.3">
<path d="M22.193 29.6076C23.8852 26.9664 26.0809 24.6845 28.6549 22.8921C31.2289 21.0996 34.1309 19.8317 37.1948 19.1609C40.2589 18.4899 43.4252 18.429 46.5128 18.9815C49.6002 19.5343 52.5488 20.6896 55.1899 22.3816C57.8309 24.0739 60.1127 26.2696 61.9052 28.8438C63.6977 31.4178 64.9656 34.3196 65.6366 37.3837C66.3077 40.4477 66.3685 43.6138 65.8157 46.7015C65.2632 49.7891 64.1079 52.7374 62.4156 55.3786M74.4649 16.0883C89.0568 33.7564 86.5631 59.9084 68.895 74.5003C51.2268 89.0923 25.0749 86.5985 10.4829 68.9304C-4.10903 51.2623 -1.61529 25.1103 16.0528 10.5184C33.721 -4.07359 59.8729 -1.57985 74.4649 16.0883ZM70.4086 60.4844C60.4738 75.9904 39.8499 80.5068 24.3439 70.572C8.83782 60.6371 4.32148 40.0132 14.2563 24.5072C24.1911 9.00116 44.815 4.48481 60.3211 14.4196C75.8271 24.3545 80.3435 44.9784 70.4086 60.4844Z" stroke="#C6913B" stroke-width="1.59532"/>
<path d="M22.193 29.6076C23.8852 26.9664 26.0809 24.6845 28.6549 22.8921C31.2289 21.0996 34.1309 19.8317 37.1948 19.1609C40.2589 18.4899 43.4252 18.429 46.5128 18.9815C49.6002 19.5343 52.5488 20.6896 55.1899 22.3816C57.8309 24.0739 60.1127 26.2696 61.9052 28.8438C63.6977 31.4178 64.9656 34.3196 65.6366 37.3837C66.3077 40.4477 66.3685 43.6138 65.8157 46.7015C65.2632 49.7891 64.1079 52.7374 62.4156 55.3786M74.4649 16.0883C89.0568 33.7564 86.5631 59.9084 68.895 74.5003C51.2268 89.0923 25.0749 86.5985 10.4829 68.9304C-4.10903 51.2623 -1.61529 25.1103 16.0528 10.5184C33.721 -4.07359 59.8729 -1.57985 74.4649 16.0883ZM70.4086 60.4844C60.4738 75.9904 39.8499 80.5068 24.3439 70.572C8.83782 60.6371 4.32148 40.0132 14.2563 24.5072C24.1911 9.00116 44.815 4.48481 60.3211 14.4196C75.8271 24.3545 80.3435 44.9784 70.4086 60.4844Z" stroke="url(#paint0_linear)" stroke-width="1.59532"/>
</g>
<defs>
<linearGradient id="paint0_linear" x1="92.2457" y1="73.6102" x2="7.05304" y2="9.14874" gradientUnits="userSpaceOnUse">
<stop stop-color="white"/>
<stop offset="1" stop-color="white" stop-opacity="0"/>
</linearGradient>
</defs>
</svg>
