<svg width="137" height="137" viewBox="0 0 137 137" fill="none" xmlns="http://www.w3.org/2000/svg">
<g opacity="0.3">
<path d="M39.946 94.6822C36.5344 90.9396 33.8934 86.562 32.1737 81.7991C30.454 77.0361 29.6893 71.9807 29.9236 66.9225C30.1575 61.8638 31.3856 56.9007 33.5374 52.3166C35.6895 47.733 38.7232 43.6176 42.4654 40.2059C46.208 36.7946 50.5855 34.1536 55.3489 32.4339C60.1118 30.7142 65.1668 29.9496 70.2255 30.1834C75.2841 30.4173 80.2469 31.6454 84.8309 33.7976C89.415 35.9494 93.53 38.9831 96.9417 42.7256M40.7053 7.51792C74.3551 -7.85478 114.096 6.96173 129.468 40.6115C144.841 74.2613 130.025 114.002 96.3748 129.375C62.725 144.747 22.9844 129.931 7.61175 96.281C-7.76095 62.6312 7.05556 22.8906 40.7053 7.51792ZM108.244 32.3945C128.273 54.3665 126.699 88.4156 104.727 108.445C82.7545 128.475 48.7054 126.9 28.6759 104.928C8.64636 82.9557 10.2211 48.9067 32.1932 28.8772C54.1652 8.84766 88.2143 10.4224 108.244 32.3945Z" stroke="#C6913B" stroke-width="1.59532"/>
<path d="M39.946 94.6822C36.5344 90.9396 33.8934 86.562 32.1737 81.7991C30.454 77.0361 29.6893 71.9807 29.9236 66.9225C30.1575 61.8638 31.3856 56.9007 33.5374 52.3166C35.6895 47.733 38.7232 43.6176 42.4654 40.2059C46.208 36.7946 50.5855 34.1536 55.3489 32.4339C60.1118 30.7142 65.1668 29.9496 70.2255 30.1834C75.2841 30.4173 80.2469 31.6454 84.8309 33.7976C89.415 35.9494 93.53 38.9831 96.9417 42.7256M40.7053 7.51792C74.3551 -7.85478 114.096 6.96173 129.468 40.6115C144.841 74.2613 130.025 114.002 96.3748 129.375C62.725 144.747 22.9844 129.931 7.61175 96.281C-7.76095 62.6312 7.05556 22.8906 40.7053 7.51792ZM108.244 32.3945C128.273 54.3665 126.699 88.4156 104.727 108.445C82.7545 128.475 48.7054 126.9 28.6759 104.928C8.64636 82.9557 10.2211 48.9067 32.1932 28.8772C54.1652 8.84766 88.2143 10.4224 108.244 32.3945Z" stroke="url(#paint0_linear)" stroke-width="1.59532"/>
</g>
<defs>
<linearGradient id="paint0_linear" x1="137.838" y1="3.82532" x2="1.71531" y2="109.743" gradientUnits="userSpaceOnUse">
<stop stop-color="white"/>
<stop offset="1" stop-color="white" stop-opacity="0"/>
</linearGradient>
</defs>
</svg>
