<svg width="402" height="401" viewBox="0 0 402 401" fill="none" xmlns="http://www.w3.org/2000/svg">
<g opacity="0.6">
<path d="M119.801 120.451C130.225 109.898 142.662 101.601 156.33 95.8404C169.999 90.0799 184.298 87.1924 199.13 87.1022C213.963 87.0108 228.487 89.7485 242.226 95.34C255.964 100.933 269.056 109.236 279.61 119.66C290.162 130.084 298.46 142.519 304.221 156.189C309.981 169.858 312.885 185.154 312.976 199.987C313.068 214.821 310.331 229.345 304.739 243.084C299.147 256.822 290.826 268.915 280.401 279.468M264.952 252.768C259.513 263.756 251.45 274.02 241.474 281.147C231.497 288.272 219.89 292.141 207.731 293.723C195.574 295.304 183.162 293.694 171.695 289.357C160.227 285.021 150.439 278.122 142.37 268.892C134.3 259.662 128.601 249.161 125.835 237.216C123.069 225.272 122.996 212.089 126.188 200.251C129.379 188.413 135.228 177.916 143.623 168.981C152.017 160.045 162.631 153.391 174.248 149.468M374.336 110.015C424.462 206.088 387.118 324.052 291.045 374.177C194.971 424.303 77.0079 386.959 26.8824 290.886C-23.2432 194.813 14.1007 76.8492 110.174 26.7237C206.247 -23.4018 324.21 13.942 374.336 110.015ZM311.915 310.883C250.715 372.84 151.153 373.973 89.1956 312.773C27.2385 251.572 26.0879 151.012 87.2884 89.0544C148.489 27.0972 249.067 26.9452 311.024 88.1457C372.981 149.346 373.116 248.926 311.915 310.883Z" stroke="#C6913B" stroke-width="2"/>
<path d="M119.801 120.451C130.225 109.898 142.662 101.601 156.33 95.8404C169.999 90.0799 184.298 87.1924 199.13 87.1022C213.963 87.0108 228.487 89.7485 242.226 95.34C255.964 100.933 269.056 109.236 279.61 119.66C290.162 130.084 298.46 142.519 304.221 156.189C309.981 169.858 312.885 185.154 312.976 199.987C313.068 214.821 310.331 229.345 304.739 243.084C299.147 256.822 290.826 268.915 280.401 279.468M264.952 252.768C259.513 263.756 251.45 274.02 241.474 281.147C231.497 288.272 219.89 292.141 207.731 293.723C195.574 295.304 183.162 293.694 171.695 289.357C160.227 285.021 150.439 278.122 142.37 268.892C134.3 259.662 128.601 249.161 125.835 237.216C123.069 225.272 122.996 212.089 126.188 200.251C129.379 188.413 135.228 177.916 143.623 168.981C152.017 160.045 162.631 153.391 174.248 149.468M374.336 110.015C424.462 206.088 387.118 324.052 291.045 374.177C194.971 424.303 77.0079 386.959 26.8824 290.886C-23.2432 194.813 14.1007 76.8492 110.174 26.7237C206.247 -23.4018 324.21 13.942 374.336 110.015ZM311.915 310.883C250.715 372.84 151.153 373.973 89.1956 312.773C27.2385 251.572 26.0879 151.012 87.2884 89.0544C148.489 27.0972 249.067 26.9452 311.024 88.1457C372.981 149.346 373.116 248.926 311.915 310.883Z" stroke="url(#paint0_linear)" stroke-width="2"/>
</g>
<defs>
<linearGradient id="paint0_linear" x1="400" y1="393" x2="69.7342" y2="11.5538" gradientUnits="userSpaceOnUse">
<stop stop-color="white"/>
<stop offset="1" stop-color="white" stop-opacity="0"/>
</linearGradient>
</defs>
</svg>
