<svg width="58" height="58" viewBox="0 0 58 58" fill="none" xmlns="http://www.w3.org/2000/svg">
<path d="M19.5868 44.5525C19.2889 44.5525 18.9968 44.6726 18.7861 44.8844C18.5756 45.0951 18.4543 45.3862 18.4543 45.6853C18.4543 45.9832 18.5755 46.2755 18.7861 46.4862C18.9968 46.6969 19.2889 46.8181 19.5868 46.8181C19.8846 46.8181 20.1768 46.6969 20.3874 46.4862C20.5979 46.2755 20.7192 45.9832 20.7192 45.6853C20.7192 45.3862 20.598 45.0951 20.3874 44.8844C20.1768 44.6725 19.8846 44.5525 19.5868 44.5525Z" fill="#C6913B"/>
<path d="M19.5868 44.5525C19.2889 44.5525 18.9968 44.6726 18.7861 44.8844C18.5756 45.0951 18.4543 45.3862 18.4543 45.6853C18.4543 45.9832 18.5755 46.2755 18.7861 46.4862C18.9968 46.6969 19.2889 46.8181 19.5868 46.8181C19.8846 46.8181 20.1768 46.6969 20.3874 46.4862C20.5979 46.2755 20.7192 45.9832 20.7192 45.6853C20.7192 45.3862 20.598 45.0951 20.3874 44.8844C20.1768 44.6725 19.8846 44.5525 19.5868 44.5525Z" fill="url(#paint0_linear)"/>
<path d="M29.9322 37.1704C29.9322 36.5448 29.4251 36.0376 28.7998 36.0376H16.1538C15.5284 36.0376 15.0213 36.5448 15.0213 37.1704C15.0213 37.7961 15.5284 38.3032 16.1538 38.3032H28.7998C29.4252 38.3032 29.9322 37.7961 29.9322 37.1704Z" fill="#C6913B"/>
<path d="M29.9322 37.1704C29.9322 36.5448 29.4251 36.0376 28.7998 36.0376H16.1538C15.5284 36.0376 15.0213 36.5448 15.0213 37.1704C15.0213 37.7961 15.5284 38.3032 16.1538 38.3032H28.7998C29.4252 38.3032 29.9322 37.7961 29.9322 37.1704Z" fill="url(#paint1_linear)"/>
<path d="M14.8347 25.6157H30.119C30.7443 25.6157 31.2514 25.1086 31.2514 24.4829C31.2514 23.8573 30.7443 23.3501 30.119 23.3501H14.8347C14.2094 23.3501 13.7022 23.8573 13.7022 24.4829C13.7022 25.1086 14.2094 25.6157 14.8347 25.6157Z" fill="#C6913B"/>
<path d="M14.8347 25.6157H30.119C30.7443 25.6157 31.2514 25.1086 31.2514 24.4829C31.2514 23.8573 30.7443 23.3501 30.119 23.3501H14.8347C14.2094 23.3501 13.7022 23.8573 13.7022 24.4829C13.7022 25.1086 14.2094 25.6157 14.8347 25.6157Z" fill="url(#paint2_linear)"/>
<path d="M22.1349 16.7717C21.3125 16.7717 20.6436 16.2113 20.6436 15.5226C20.6436 14.8969 20.1365 14.3898 19.5111 14.3898C18.8858 14.3898 18.3787 14.8969 18.3787 15.5226C18.3787 17.0914 19.483 18.4232 21.0024 18.8738V19.0312C21.0024 19.6569 21.5096 20.1641 22.1349 20.1641C22.7602 20.1641 23.2673 19.6569 23.2673 19.0312V18.8738C24.7867 18.4233 25.8911 17.0915 25.8911 15.5226C25.8911 13.5846 24.206 12.0078 22.1349 12.0078C21.3125 12.0078 20.6436 11.4474 20.6436 10.7587C20.6436 10.0699 21.3125 9.5095 22.1349 9.5095C22.9573 9.5095 23.6262 10.0699 23.6262 10.7587C23.6262 11.3843 24.1333 11.8915 24.7587 11.8915C25.384 11.8915 25.8911 11.3843 25.8911 10.7587C25.8911 9.18982 24.7867 7.85809 23.2673 7.40746V7.25C23.2673 6.62434 22.7602 6.11718 22.1349 6.11718C21.5096 6.11718 21.0024 6.62434 21.0024 7.25V7.40746C19.483 7.85798 18.3787 9.18971 18.3787 10.7587C18.3787 12.6967 20.0638 14.2734 22.1349 14.2734C22.9573 14.2734 23.6262 14.8338 23.6262 15.5226C23.6262 16.2113 22.9573 16.7717 22.1349 16.7717Z" fill="#C6913B"/>
<path d="M22.1349 16.7717C21.3125 16.7717 20.6436 16.2113 20.6436 15.5226C20.6436 14.8969 20.1365 14.3898 19.5111 14.3898C18.8858 14.3898 18.3787 14.8969 18.3787 15.5226C18.3787 17.0914 19.483 18.4232 21.0024 18.8738V19.0312C21.0024 19.6569 21.5096 20.1641 22.1349 20.1641C22.7602 20.1641 23.2673 19.6569 23.2673 19.0312V18.8738C24.7867 18.4233 25.8911 17.0915 25.8911 15.5226C25.8911 13.5846 24.206 12.0078 22.1349 12.0078C21.3125 12.0078 20.6436 11.4474 20.6436 10.7587C20.6436 10.0699 21.3125 9.5095 22.1349 9.5095C22.9573 9.5095 23.6262 10.0699 23.6262 10.7587C23.6262 11.3843 24.1333 11.8915 24.7587 11.8915C25.384 11.8915 25.8911 11.3843 25.8911 10.7587C25.8911 9.18982 24.7867 7.85809 23.2673 7.40746V7.25C23.2673 6.62434 22.7602 6.11718 22.1349 6.11718C21.5096 6.11718 21.0024 6.62434 21.0024 7.25V7.40746C19.483 7.85798 18.3787 9.18971 18.3787 10.7587C18.3787 12.6967 20.0638 14.2734 22.1349 14.2734C22.9573 14.2734 23.6262 14.8338 23.6262 15.5226C23.6262 16.2113 22.9573 16.7717 22.1349 16.7717Z" fill="url(#paint3_linear)"/>
<path d="M56.1881 34.9901L54.4214 36.2594C51.7703 38.1641 48.6436 39.171 45.3796 39.171H41.4404C40.5027 39.171 39.7397 38.4078 39.7397 37.4698C39.7397 36.5317 40.5026 35.7686 41.4404 35.7686H43.3655C46.666 35.7686 49.3633 33.1421 49.4821 29.8691L54.4296 21.2969H56.8675C57.4929 21.2969 58 20.7897 58 20.1641C58 19.5384 57.4929 19.0312 56.8675 19.0312H55.7373L57.8483 15.3736C57.9984 15.1134 58.0392 14.8043 57.9614 14.514C57.8836 14.2238 57.6939 13.9764 57.4338 13.8262L53.1186 11.334C52.5768 11.0212 51.8843 11.2069 51.5717 11.7486L47.3685 19.0312H46.2989C45.7319 19.0312 45.1709 19.0701 44.6183 19.1449V1.13281C44.6183 0.50716 44.1112 0 43.4859 0H1.13245C0.507109 0 0 0.50716 0 1.13281V56.8672C0 57.4928 0.507109 58 1.13245 58H43.4859C44.1112 58 44.6183 57.4928 44.6183 56.8672V41.4366H45.3797C49.1207 41.4366 52.7042 40.2827 55.7428 38.0995L57.5095 36.8302C58.0174 36.4652 58.1335 35.7575 57.7686 35.2493C57.4038 34.7413 56.6963 34.625 56.1881 34.9901ZM40.2892 41.2655L40.2803 41.281L37.5684 43.2611L37.9267 39.9217L38.1055 39.6118C38.6095 40.3945 39.3804 40.9892 40.2892 41.2655ZM52.967 13.8626L55.3207 15.2219L44.9729 33.1506C44.4832 33.3762 43.9391 33.5029 43.3656 33.5029H41.6313L52.967 13.8626ZM40.1364 31.5619C40.1362 31.5622 40.136 31.5624 40.1358 31.5626L37.2033 36.6434C37.0169 36.9663 36.7135 37.1857 36.3487 37.2615C35.984 37.3373 35.618 37.2567 35.3186 37.0347C34.8988 36.7233 34.709 36.1945 34.8353 35.6871L36.5111 28.95C36.9551 27.165 37.8785 25.5354 39.1815 24.2374C41.0276 22.3983 43.4616 21.3636 46.0573 21.3029L40.1364 31.5619ZM2.26489 55.7344V2.26562H42.3535V19.6729C40.5776 20.2698 38.9491 21.2715 37.5834 22.632C35.9879 24.2215 34.8571 26.2169 34.3133 28.4029L33.9923 29.6938H10.1121C9.48672 29.6938 8.97961 30.201 8.97961 30.8267C8.97961 31.4523 9.48672 31.9595 10.1121 31.9595H33.4287L32.6375 35.1398C32.2896 36.5383 32.8126 37.9965 33.97 38.8547C34.4784 39.2318 35.0739 39.4595 35.6908 39.5288L35.1519 44.552H24.6829C24.0576 44.552 23.5504 45.0592 23.5504 45.6849C23.5504 46.3105 24.0576 46.8177 24.6829 46.8177H36.1694C36.4046 46.8177 36.6391 46.7444 36.8371 46.5998L41.809 42.9698C41.9365 42.8767 42.0431 42.7579 42.1221 42.6212L42.3536 42.2201V55.7343H2.26489V55.7344Z" fill="#C6913B"/>
<path d="M56.1881 34.9901L54.4214 36.2594C51.7703 38.1641 48.6436 39.171 45.3796 39.171H41.4404C40.5027 39.171 39.7397 38.4078 39.7397 37.4698C39.7397 36.5317 40.5026 35.7686 41.4404 35.7686H43.3655C46.666 35.7686 49.3633 33.1421 49.4821 29.8691L54.4296 21.2969H56.8675C57.4929 21.2969 58 20.7897 58 20.1641C58 19.5384 57.4929 19.0312 56.8675 19.0312H55.7373L57.8483 15.3736C57.9984 15.1134 58.0392 14.8043 57.9614 14.514C57.8836 14.2238 57.6939 13.9764 57.4338 13.8262L53.1186 11.334C52.5768 11.0212 51.8843 11.2069 51.5717 11.7486L47.3685 19.0312H46.2989C45.7319 19.0312 45.1709 19.0701 44.6183 19.1449V1.13281C44.6183 0.50716 44.1112 0 43.4859 0H1.13245C0.507109 0 0 0.50716 0 1.13281V56.8672C0 57.4928 0.507109 58 1.13245 58H43.4859C44.1112 58 44.6183 57.4928 44.6183 56.8672V41.4366H45.3797C49.1207 41.4366 52.7042 40.2827 55.7428 38.0995L57.5095 36.8302C58.0174 36.4652 58.1335 35.7575 57.7686 35.2493C57.4038 34.7413 56.6963 34.625 56.1881 34.9901ZM40.2892 41.2655L40.2803 41.281L37.5684 43.2611L37.9267 39.9217L38.1055 39.6118C38.6095 40.3945 39.3804 40.9892 40.2892 41.2655ZM52.967 13.8626L55.3207 15.2219L44.9729 33.1506C44.4832 33.3762 43.9391 33.5029 43.3656 33.5029H41.6313L52.967 13.8626ZM40.1364 31.5619C40.1362 31.5622 40.136 31.5624 40.1358 31.5626L37.2033 36.6434C37.0169 36.9663 36.7135 37.1857 36.3487 37.2615C35.984 37.3373 35.618 37.2567 35.3186 37.0347C34.8988 36.7233 34.709 36.1945 34.8353 35.6871L36.5111 28.95C36.9551 27.165 37.8785 25.5354 39.1815 24.2374C41.0276 22.3983 43.4616 21.3636 46.0573 21.3029L40.1364 31.5619ZM2.26489 55.7344V2.26562H42.3535V19.6729C40.5776 20.2698 38.9491 21.2715 37.5834 22.632C35.9879 24.2215 34.8571 26.2169 34.3133 28.4029L33.9923 29.6938H10.1121C9.48672 29.6938 8.97961 30.201 8.97961 30.8267C8.97961 31.4523 9.48672 31.9595 10.1121 31.9595H33.4287L32.6375 35.1398C32.2896 36.5383 32.8126 37.9965 33.97 38.8547C34.4784 39.2318 35.0739 39.4595 35.6908 39.5288L35.1519 44.552H24.6829C24.0576 44.552 23.5504 45.0592 23.5504 45.6849C23.5504 46.3105 24.0576 46.8177 24.6829 46.8177H36.1694C36.4046 46.8177 36.6391 46.7444 36.8371 46.5998L41.809 42.9698C41.9365 42.8767 42.0431 42.7579 42.1221 42.6212L42.3536 42.2201V55.7343H2.26489V55.7344Z" fill="url(#paint4_linear)"/>
<defs>
<linearGradient id="paint0_linear" x1="0" y1="0" x2="47.8734" y2="57.2827" gradientUnits="userSpaceOnUse">
<stop stop-color="white"/>
<stop offset="1" stop-color="white" stop-opacity="0"/>
</linearGradient>
<linearGradient id="paint1_linear" x1="0" y1="0" x2="47.8734" y2="57.2827" gradientUnits="userSpaceOnUse">
<stop stop-color="white"/>
<stop offset="1" stop-color="white" stop-opacity="0"/>
</linearGradient>
<linearGradient id="paint2_linear" x1="0" y1="0" x2="47.8734" y2="57.2827" gradientUnits="userSpaceOnUse">
<stop stop-color="white"/>
<stop offset="1" stop-color="white" stop-opacity="0"/>
</linearGradient>
<linearGradient id="paint3_linear" x1="0" y1="0" x2="47.8734" y2="57.2827" gradientUnits="userSpaceOnUse">
<stop stop-color="white"/>
<stop offset="1" stop-color="white" stop-opacity="0"/>
</linearGradient>
<linearGradient id="paint4_linear" x1="0" y1="0" x2="47.8734" y2="57.2827" gradientUnits="userSpaceOnUse">
<stop stop-color="white"/>
<stop offset="1" stop-color="white" stop-opacity="0"/>
</linearGradient>
</defs>
</svg>
