<svg width="56" height="50" viewBox="0 0 56 50" fill="none" xmlns="http://www.w3.org/2000/svg">
<path d="M7.71674 38.0047C7.5046 38.0047 7.30115 37.9194 7.15114 37.7674C7.00113 37.6155 6.91686 37.4094 6.91686 37.1946V7.39598C6.95281 5.41593 7.75764 3.52998 9.15696 2.1468C10.5563 0.763624 12.4374 -0.00536063 14.3926 0.00648299H48.5157C48.7278 0.00648299 48.9313 0.0918393 49.0813 0.243774C49.2313 0.395709 49.3156 0.601777 49.3156 0.816646C49.3156 1.03151 49.2313 1.23758 49.0813 1.38952C48.9313 1.54145 48.7278 1.62681 48.5157 1.62681H14.3926C12.8587 1.61667 11.3825 2.21828 10.283 3.3016C9.18344 4.38492 8.54896 5.86294 8.51663 7.41623V37.1946C8.51663 37.4094 8.43235 37.6155 8.28235 37.7674C8.13234 37.9194 7.92889 38.0047 7.71674 38.0047Z" fill="#C6913B"/>
<path d="M7.71674 38.0047C7.5046 38.0047 7.30115 37.9194 7.15114 37.7674C7.00113 37.6155 6.91686 37.4094 6.91686 37.1946V7.39598C6.95281 5.41593 7.75764 3.52998 9.15696 2.1468C10.5563 0.763624 12.4374 -0.00536063 14.3926 0.00648299H48.5157C48.7278 0.00648299 48.9313 0.0918393 49.0813 0.243774C49.2313 0.395709 49.3156 0.601777 49.3156 0.816646C49.3156 1.03151 49.2313 1.23758 49.0813 1.38952C48.9313 1.54145 48.7278 1.62681 48.5157 1.62681H14.3926C12.8587 1.61667 11.3825 2.21828 10.283 3.3016C9.18344 4.38492 8.54896 5.86294 8.51663 7.41623V37.1946C8.51663 37.4094 8.43235 37.6155 8.28235 37.7674C8.13234 37.9194 7.92889 38.0047 7.71674 38.0047Z" fill="url(#paint0_linear)"/>
<path d="M46.8335 15.1565H41.8407C41.6285 15.1565 41.4251 15.0712 41.2751 14.9192C41.125 14.7673 41.0408 14.5612 41.0408 14.3464C41.0408 14.1315 41.125 13.9254 41.2751 13.7735C41.4251 13.6216 41.6285 13.5362 41.8407 13.5362H45.1042C44.7972 12.9425 44.6171 12.2899 44.5757 11.6209C44.5344 10.952 44.6327 10.2818 44.8642 9.6539H41.8407C41.6285 9.6539 41.4251 9.56854 41.2751 9.41661C41.125 9.26467 41.0408 9.05861 41.0408 8.84374C41.0408 8.62887 41.125 8.4228 41.2751 8.27086C41.4251 8.11893 41.6285 8.03357 41.8407 8.03357H46.1296C46.2742 8.03355 46.4161 8.07321 46.5402 8.14834C46.6643 8.22347 46.7659 8.33126 46.8344 8.46024C46.9028 8.58922 46.9354 8.73458 46.9288 8.88086C46.9222 9.02713 46.8765 9.16885 46.7967 9.29095C46.6256 9.55668 45.1754 11.9604 47.3343 13.7144C47.4635 13.8194 47.5573 13.9625 47.6028 14.1238C47.6483 14.2852 47.6433 14.4569 47.5883 14.6151C47.5333 14.7734 47.4312 14.9105 47.296 15.0075C47.1608 15.1045 46.9992 15.1566 46.8335 15.1565Z" fill="#C6913B"/>
<path d="M46.8335 15.1565H41.8407C41.6285 15.1565 41.4251 15.0712 41.2751 14.9192C41.125 14.7673 41.0408 14.5612 41.0408 14.3464C41.0408 14.1315 41.125 13.9254 41.2751 13.7735C41.4251 13.6216 41.6285 13.5362 41.8407 13.5362H45.1042C44.7972 12.9425 44.6171 12.2899 44.5757 11.6209C44.5344 10.952 44.6327 10.2818 44.8642 9.6539H41.8407C41.6285 9.6539 41.4251 9.56854 41.2751 9.41661C41.125 9.26467 41.0408 9.05861 41.0408 8.84374C41.0408 8.62887 41.125 8.4228 41.2751 8.27086C41.4251 8.11893 41.6285 8.03357 41.8407 8.03357H46.1296C46.2742 8.03355 46.4161 8.07321 46.5402 8.14834C46.6643 8.22347 46.7659 8.33126 46.8344 8.46024C46.9028 8.58922 46.9354 8.73458 46.9288 8.88086C46.9222 9.02713 46.8765 9.16885 46.7967 9.29095C46.6256 9.55668 45.1754 11.9604 47.3343 13.7144C47.4635 13.8194 47.5573 13.9625 47.6028 14.1238C47.6483 14.2852 47.6433 14.4569 47.5883 14.6151C47.5333 14.7734 47.4312 14.9105 47.296 15.0075C47.1608 15.1045 46.9992 15.1566 46.8335 15.1565Z" fill="url(#paint1_linear)"/>
<path d="M41.8407 44.1555C41.6285 44.1555 41.4251 44.0701 41.2751 43.9182C41.125 43.7663 41.0408 43.5602 41.0408 43.3453V7.39598C41.0408 7.18111 41.125 6.97504 41.2751 6.8231C41.4251 6.67117 41.6285 6.58581 41.8407 6.58581C42.0528 6.58581 42.2563 6.67117 42.4063 6.8231C42.5563 6.97504 42.6405 7.18111 42.6405 7.39598V43.3453C42.6405 43.5602 42.5563 43.7663 42.4063 43.9182C42.2563 44.0701 42.0528 44.1555 41.8407 44.1555Z" fill="#C6913B"/>
<path d="M41.8407 44.1555C41.6285 44.1555 41.4251 44.0701 41.2751 43.9182C41.125 43.7663 41.0408 43.5602 41.0408 43.3453V7.39598C41.0408 7.18111 41.125 6.97504 41.2751 6.8231C41.4251 6.67117 41.6285 6.58581 41.8407 6.58581C42.0528 6.58581 42.2563 6.67117 42.4063 6.8231C42.5563 6.97504 42.6405 7.18111 42.6405 7.39598V43.3453C42.6405 43.5602 42.5563 43.7663 42.4063 43.9182C42.2563 44.0701 42.0528 44.1555 41.8407 44.1555Z" fill="url(#paint2_linear)"/>
<path d="M6.08098 50C4.76577 49.9998 3.4928 49.5296 2.48629 48.6721C2.32632 48.5328 2.17194 48.3935 2.02716 48.2468C1.1281 47.3379 0.493978 46.1955 0.194567 44.9451C-0.104845 43.6948 -0.0579458 42.385 0.330104 41.1599C0.718154 39.9348 1.43232 38.8419 2.39402 38.0014C3.35573 37.1608 4.52771 36.6052 5.78102 36.3958C5.82383 36.3883 5.86717 36.3845 5.9106 36.3844H36.4246C36.6257 36.3841 36.8195 36.4606 36.9674 36.5985C37.1153 36.7365 37.2066 36.9258 37.2229 37.1287C37.2392 37.3317 37.1795 37.5335 37.0556 37.6939C36.9317 37.8542 36.7527 37.9615 36.5542 37.9942C35.592 38.1561 34.6924 38.5835 33.9544 39.2295C33.2164 39.8755 32.6685 40.715 32.3709 41.6559C32.0733 42.5967 32.0375 43.6024 32.2675 44.5625C32.4975 45.5226 32.9844 46.3999 33.6746 47.098C33.7874 47.213 33.905 47.3208 34.0258 47.4221C34.7153 48.0105 35.5803 48.3467 36.4814 48.3764H36.6302C37.256 48.3681 37.8725 48.2222 38.4371 47.9487C39.2138 47.5898 39.8721 47.0123 40.3337 46.285C40.7954 45.5578 41.0408 44.7114 41.0408 43.8468C41.0408 43.632 41.125 43.4259 41.2751 43.2739C41.4251 43.122 41.6285 43.0367 41.8407 43.0367C42.0528 43.0367 42.2563 43.122 42.4063 43.2739C42.5563 43.4259 42.6405 43.632 42.6405 43.8468C42.6428 45.0193 42.3123 46.1677 41.6883 47.1552C41.0643 48.1427 40.1731 48.9277 39.121 49.4167C38.3554 49.7841 37.5206 49.9801 36.6734 49.9911C36.6431 49.9946 36.6127 49.9965 36.5822 49.9968H6.15617C6.13137 49.9992 6.10657 50 6.08098 50ZM5.97779 38.0047C5.02241 38.1775 4.13208 38.6122 3.40364 39.2618C2.6752 39.9113 2.13654 40.7506 1.84624 41.6886C1.55595 42.6266 1.52513 43.6272 1.75715 44.5816C1.98917 45.5361 2.47514 46.4078 3.1622 47.1021C3.27578 47.2171 3.39736 47.3273 3.51815 47.431C4.21812 48.0263 5.09832 48.3608 6.01219 48.3789H32.6756C32.6308 48.3351 32.586 48.2914 32.542 48.2468C31.2482 46.9346 30.5211 45.1562 30.5202 43.3018C30.5193 41.4473 31.2447 39.6682 32.5372 38.3547C32.6564 38.234 32.7772 38.1182 32.9051 38.0072L5.97779 38.0047Z" fill="#C6913B"/>
<path d="M6.08098 50C4.76577 49.9998 3.4928 49.5296 2.48629 48.6721C2.32632 48.5328 2.17194 48.3935 2.02716 48.2468C1.1281 47.3379 0.493978 46.1955 0.194567 44.9451C-0.104845 43.6948 -0.0579458 42.385 0.330104 41.1599C0.718154 39.9348 1.43232 38.8419 2.39402 38.0014C3.35573 37.1608 4.52771 36.6052 5.78102 36.3958C5.82383 36.3883 5.86717 36.3845 5.9106 36.3844H36.4246C36.6257 36.3841 36.8195 36.4606 36.9674 36.5985C37.1153 36.7365 37.2066 36.9258 37.2229 37.1287C37.2392 37.3317 37.1795 37.5335 37.0556 37.6939C36.9317 37.8542 36.7527 37.9615 36.5542 37.9942C35.592 38.1561 34.6924 38.5835 33.9544 39.2295C33.2164 39.8755 32.6685 40.715 32.3709 41.6559C32.0733 42.5967 32.0375 43.6024 32.2675 44.5625C32.4975 45.5226 32.9844 46.3999 33.6746 47.098C33.7874 47.213 33.905 47.3208 34.0258 47.4221C34.7153 48.0105 35.5803 48.3467 36.4814 48.3764H36.6302C37.256 48.3681 37.8725 48.2222 38.4371 47.9487C39.2138 47.5898 39.8721 47.0123 40.3337 46.285C40.7954 45.5578 41.0408 44.7114 41.0408 43.8468C41.0408 43.632 41.125 43.4259 41.2751 43.2739C41.4251 43.122 41.6285 43.0367 41.8407 43.0367C42.0528 43.0367 42.2563 43.122 42.4063 43.2739C42.5563 43.4259 42.6405 43.632 42.6405 43.8468C42.6428 45.0193 42.3123 46.1677 41.6883 47.1552C41.0643 48.1427 40.1731 48.9277 39.121 49.4167C38.3554 49.7841 37.5206 49.9801 36.6734 49.9911C36.6431 49.9946 36.6127 49.9965 36.5822 49.9968H6.15617C6.13137 49.9992 6.10657 50 6.08098 50ZM5.97779 38.0047C5.02241 38.1775 4.13208 38.6122 3.40364 39.2618C2.6752 39.9113 2.13654 40.7506 1.84624 41.6886C1.55595 42.6266 1.52513 43.6272 1.75715 44.5816C1.98917 45.5361 2.47514 46.4078 3.1622 47.1021C3.27578 47.2171 3.39736 47.3273 3.51815 47.431C4.21812 48.0263 5.09832 48.3608 6.01219 48.3789H32.6756C32.6308 48.3351 32.586 48.2914 32.542 48.2468C31.2482 46.9346 30.5211 45.1562 30.5202 43.3018C30.5193 41.4473 31.2447 39.6682 32.5372 38.3547C32.6564 38.234 32.7772 38.1182 32.9051 38.0072L5.97779 38.0047Z" fill="url(#paint3_linear)"/>
<path d="M48.5157 15.1565H47.0399C46.8278 15.1565 46.6243 15.0712 46.4743 14.9192C46.3243 14.7673 46.24 14.5612 46.24 14.3464C46.24 14.1315 46.3243 13.9254 46.4743 13.7735C46.6243 13.6216 46.8278 13.5362 47.0399 13.5362H48.5141C49.6701 13.5369 50.8006 13.1923 51.7643 12.5457C52.728 11.8991 53.4821 10.9791 53.9324 9.90072C54.3826 8.82234 54.5089 7.63346 54.2956 6.48273C54.0823 5.332 53.5388 4.2705 52.7331 3.43095C51.9273 2.59141 50.8951 2.01108 49.7655 1.76253C48.6359 1.51398 47.4589 1.60824 46.3819 2.03353C45.3049 2.45882 44.3755 3.19626 43.7101 4.15364C43.0447 5.11102 42.6726 6.24585 42.6405 7.41623C42.6394 7.52302 42.6172 7.62851 42.5752 7.72645C42.5331 7.82439 42.4721 7.91279 42.3957 7.98644C42.3194 8.06008 42.2292 8.11747 42.1306 8.1552C42.0319 8.19294 41.9268 8.21026 41.8215 8.20614C41.7164 8.20351 41.6129 8.17994 41.5168 8.13678C41.4208 8.09362 41.3341 8.03172 41.2616 7.9546C41.1892 7.87748 41.1325 7.78666 41.0947 7.68734C41.057 7.58801 41.0389 7.48212 41.0416 7.37572C41.0806 5.88616 41.5524 4.44131 42.398 3.22193C43.2435 2.00255 44.4253 1.06278 45.7955 0.520181C47.1657 -0.0224194 48.6634 -0.143758 50.1013 0.171345C51.5393 0.486448 52.8535 1.224 53.8797 2.29174C54.9059 3.35948 55.5985 4.70999 55.8708 6.17434C56.143 7.63868 55.983 9.15184 55.4106 10.5245C54.8382 11.8972 53.8788 13.0685 52.6526 13.8918C51.4264 14.7151 49.9877 15.1539 48.5165 15.1533L48.5157 15.1565Z" fill="#C6913B"/>
<path d="M48.5157 15.1565H47.0399C46.8278 15.1565 46.6243 15.0712 46.4743 14.9192C46.3243 14.7673 46.24 14.5612 46.24 14.3464C46.24 14.1315 46.3243 13.9254 46.4743 13.7735C46.6243 13.6216 46.8278 13.5362 47.0399 13.5362H48.5141C49.6701 13.5369 50.8006 13.1923 51.7643 12.5457C52.728 11.8991 53.4821 10.9791 53.9324 9.90072C54.3826 8.82234 54.5089 7.63346 54.2956 6.48273C54.0823 5.332 53.5388 4.2705 52.7331 3.43095C51.9273 2.59141 50.8951 2.01108 49.7655 1.76253C48.6359 1.51398 47.4589 1.60824 46.3819 2.03353C45.3049 2.45882 44.3755 3.19626 43.7101 4.15364C43.0447 5.11102 42.6726 6.24585 42.6405 7.41623C42.6394 7.52302 42.6172 7.62851 42.5752 7.72645C42.5331 7.82439 42.4721 7.91279 42.3957 7.98644C42.3194 8.06008 42.2292 8.11747 42.1306 8.1552C42.0319 8.19294 41.9268 8.21026 41.8215 8.20614C41.7164 8.20351 41.6129 8.17994 41.5168 8.13678C41.4208 8.09362 41.3341 8.03172 41.2616 7.9546C41.1892 7.87748 41.1325 7.78666 41.0947 7.68734C41.057 7.58801 41.0389 7.48212 41.0416 7.37572C41.0806 5.88616 41.5524 4.44131 42.398 3.22193C43.2435 2.00255 44.4253 1.06278 45.7955 0.520181C47.1657 -0.0224194 48.6634 -0.143758 50.1013 0.171345C51.5393 0.486448 52.8535 1.224 53.8797 2.29174C54.9059 3.35948 55.5985 4.70999 55.8708 6.17434C56.143 7.63868 55.983 9.15184 55.4106 10.5245C54.8382 11.8972 53.8788 13.0685 52.6526 13.8918C51.4264 14.7151 49.9877 15.1539 48.5165 15.1533L48.5157 15.1565Z" fill="url(#paint4_linear)"/>
<path d="M37.2301 8.66469H13.1744C12.9622 8.66469 12.7588 8.57934 12.6088 8.4274C12.4587 8.27547 12.3745 8.0694 12.3745 7.85453C12.3745 7.63966 12.4587 7.43359 12.6088 7.28166C12.7588 7.12972 12.9622 7.04437 13.1744 7.04437H37.2301C37.4423 7.04437 37.6457 7.12972 37.7957 7.28166C37.9457 7.43359 38.03 7.63966 38.03 7.85453C38.03 8.0694 37.9457 8.27547 37.7957 8.4274C37.6457 8.57934 37.4423 8.66469 37.2301 8.66469Z" fill="#C6913B"/>
<path d="M37.2301 8.66469H13.1744C12.9622 8.66469 12.7588 8.57934 12.6088 8.4274C12.4587 8.27547 12.3745 8.0694 12.3745 7.85453C12.3745 7.63966 12.4587 7.43359 12.6088 7.28166C12.7588 7.12972 12.9622 7.04437 13.1744 7.04437H37.2301C37.4423 7.04437 37.6457 7.12972 37.7957 7.28166C37.9457 7.43359 38.03 7.63966 38.03 7.85453C38.03 8.0694 37.9457 8.27547 37.7957 8.4274C37.6457 8.57934 37.4423 8.66469 37.2301 8.66469Z" fill="url(#paint5_linear)"/>
<path d="M37.2301 15.9772H30.8022C30.5901 15.9772 30.3866 15.8919 30.2366 15.7399C30.0866 15.588 30.0024 15.3819 30.0024 15.1671C30.0024 14.9522 30.0866 14.7461 30.2366 14.5942C30.3866 14.4422 30.5901 14.3569 30.8022 14.3569H37.2301C37.4423 14.3569 37.6457 14.4422 37.7957 14.5942C37.9457 14.7461 38.03 14.9522 38.03 15.1671C38.03 15.3819 37.9457 15.588 37.7957 15.7399C37.6457 15.8919 37.4423 15.9772 37.2301 15.9772Z" fill="#C6913B"/>
<path d="M37.2301 15.9772H30.8022C30.5901 15.9772 30.3866 15.8919 30.2366 15.7399C30.0866 15.588 30.0024 15.3819 30.0024 15.1671C30.0024 14.9522 30.0866 14.7461 30.2366 14.5942C30.3866 14.4422 30.5901 14.3569 30.8022 14.3569H37.2301C37.4423 14.3569 37.6457 14.4422 37.7957 14.5942C37.9457 14.7461 38.03 14.9522 38.03 15.1671C38.03 15.3819 37.9457 15.588 37.7957 15.7399C37.6457 15.8919 37.4423 15.9772 37.2301 15.9772Z" fill="url(#paint6_linear)"/>
<path d="M15.0045 15.9772H13.1744C12.9622 15.9772 12.7588 15.8919 12.6088 15.7399C12.4587 15.588 12.3745 15.3819 12.3745 15.1671C12.3745 14.9522 12.4587 14.7461 12.6088 14.5942C12.7588 14.4422 12.9622 14.3569 13.1744 14.3569H15.0045C15.2166 14.3569 15.4201 14.4422 15.5701 14.5942C15.7201 14.7461 15.8044 14.9522 15.8044 15.1671C15.8044 15.3819 15.7201 15.588 15.5701 15.7399C15.4201 15.8919 15.2166 15.9772 15.0045 15.9772Z" fill="#C6913B"/>
<path d="M15.0045 15.9772H13.1744C12.9622 15.9772 12.7588 15.8919 12.6088 15.7399C12.4587 15.588 12.3745 15.3819 12.3745 15.1671C12.3745 14.9522 12.4587 14.7461 12.6088 14.5942C12.7588 14.4422 12.9622 14.3569 13.1744 14.3569H15.0045C15.2166 14.3569 15.4201 14.4422 15.5701 14.5942C15.7201 14.7461 15.8044 14.9522 15.8044 15.1671C15.8044 15.3819 15.7201 15.588 15.5701 15.7399C15.4201 15.8919 15.2166 15.9772 15.0045 15.9772Z" fill="url(#paint7_linear)"/>
<path d="M37.2301 23.2889H31.1358C30.9236 23.2889 30.7202 23.2036 30.5702 23.0516C30.4202 22.8997 30.3359 22.6936 30.3359 22.4788C30.3359 22.2639 30.4202 22.0578 30.5702 21.9059C30.7202 21.754 30.9236 21.6686 31.1358 21.6686H37.2301C37.4423 21.6686 37.6457 21.754 37.7957 21.9059C37.9457 22.0578 38.03 22.2639 38.03 22.4788C38.03 22.6936 37.9457 22.8997 37.7957 23.0516C37.6457 23.2036 37.4423 23.2889 37.2301 23.2889Z" fill="#C6913B"/>
<path d="M37.2301 23.2889H31.1358C30.9236 23.2889 30.7202 23.2036 30.5702 23.0516C30.4202 22.8997 30.3359 22.6936 30.3359 22.4788C30.3359 22.2639 30.4202 22.0578 30.5702 21.9059C30.7202 21.754 30.9236 21.6686 31.1358 21.6686H37.2301C37.4423 21.6686 37.6457 21.754 37.7957 21.9059C37.9457 22.0578 38.03 22.2639 38.03 22.4788C38.03 22.6936 37.9457 22.8997 37.7957 23.0516C37.6457 23.2036 37.4423 23.2889 37.2301 23.2889Z" fill="url(#paint8_linear)"/>
<path d="M14.0894 23.2889H13.1744C12.9622 23.2889 12.7588 23.2036 12.6088 23.0516C12.4587 22.8997 12.3745 22.6936 12.3745 22.4788C12.3745 22.2639 12.4587 22.0578 12.6088 21.9059C12.7588 21.754 12.9622 21.6686 13.1744 21.6686H14.0894C14.3016 21.6686 14.505 21.754 14.655 21.9059C14.805 22.0578 14.8893 22.2639 14.8893 22.4788C14.8893 22.6936 14.805 22.8997 14.655 23.0516C14.505 23.2036 14.3016 23.2889 14.0894 23.2889Z" fill="#C6913B"/>
<path d="M14.0894 23.2889H13.1744C12.9622 23.2889 12.7588 23.2036 12.6088 23.0516C12.4587 22.8997 12.3745 22.6936 12.3745 22.4788C12.3745 22.2639 12.4587 22.0578 12.6088 21.9059C12.7588 21.754 12.9622 21.6686 13.1744 21.6686H14.0894C14.3016 21.6686 14.505 21.754 14.655 21.9059C14.805 22.0578 14.8893 22.2639 14.8893 22.4788C14.8893 22.6936 14.805 22.8997 14.655 23.0516C14.505 23.2036 14.3016 23.2889 14.0894 23.2889Z" fill="url(#paint9_linear)"/>
<path d="M37.2301 30.6015H36.3678C36.1557 30.6015 35.9522 30.5161 35.8022 30.3642C35.6522 30.2122 35.568 30.0062 35.568 29.7913C35.568 29.5764 35.6522 29.3704 35.8022 29.2184C35.9522 29.0665 36.1557 28.9811 36.3678 28.9811H37.2301C37.4423 28.9811 37.6457 29.0665 37.7957 29.2184C37.9457 29.3704 38.03 29.5764 38.03 29.7913C38.03 30.0062 37.9457 30.2122 37.7957 30.3642C37.6457 30.5161 37.4423 30.6015 37.2301 30.6015Z" fill="#C6913B"/>
<path d="M37.2301 30.6015H36.3678C36.1557 30.6015 35.9522 30.5161 35.8022 30.3642C35.6522 30.2122 35.568 30.0062 35.568 29.7913C35.568 29.5764 35.6522 29.3704 35.8022 29.2184C35.9522 29.0665 36.1557 28.9811 36.3678 28.9811H37.2301C37.4423 28.9811 37.6457 29.0665 37.7957 29.2184C37.9457 29.3704 38.03 29.5764 38.03 29.7913C38.03 30.0062 37.9457 30.2122 37.7957 30.3642C37.6457 30.5161 37.4423 30.6015 37.2301 30.6015Z" fill="url(#paint10_linear)"/>
<path d="M23.9696 30.6015H13.1712C12.959 30.6015 12.7556 30.5161 12.6056 30.3642C12.4556 30.2122 12.3713 30.0062 12.3713 29.7913C12.3713 29.5764 12.4556 29.3704 12.6056 29.2184C12.7556 29.0665 12.959 28.9811 13.1712 28.9811H23.9696C24.1818 28.9811 24.3852 29.0665 24.5352 29.2184C24.6852 29.3704 24.7695 29.5764 24.7695 29.7913C24.7695 30.0062 24.6852 30.2122 24.5352 30.3642C24.3852 30.5161 24.1818 30.6015 23.9696 30.6015Z" fill="#C6913B"/>
<path d="M23.9696 30.6015H13.1712C12.959 30.6015 12.7556 30.5161 12.6056 30.3642C12.4556 30.2122 12.3713 30.0062 12.3713 29.7913C12.3713 29.5764 12.4556 29.3704 12.6056 29.2184C12.7556 29.0665 12.959 28.9811 13.1712 28.9811H23.9696C24.1818 28.9811 24.3852 29.0665 24.5352 29.2184C24.6852 29.3704 24.7695 29.5764 24.7695 29.7913C24.7695 30.0062 24.6852 30.2122 24.5352 30.3642C24.3852 30.5161 24.1818 30.6015 23.9696 30.6015Z" fill="url(#paint11_linear)"/>
<path d="M22.3602 27.3527C21.2673 27.3528 20.1912 27.0798 19.2273 26.5579C18.2635 26.0361 17.4415 25.2815 16.8344 24.3611C16.2272 23.4406 15.8536 22.3827 15.7465 21.2811C15.6395 20.1794 15.8024 19.068 16.2207 18.0453C16.6391 17.0227 17.3001 16.1203 18.145 15.4182C18.99 14.7161 19.9929 14.2359 21.0649 14.0201C22.1368 13.8044 23.2448 13.8598 24.2906 14.1813C25.3364 14.5029 26.2878 15.0808 27.0604 15.8638C27.9902 16.805 28.6234 18.0043 28.88 19.3101C29.1365 20.6159 29.0049 21.9694 28.5017 23.1994C27.9985 24.4294 27.1464 25.4806 26.0532 26.2199C24.9599 26.9592 23.6748 27.3534 22.3602 27.3527ZM22.3602 15.5122C21.1925 15.5122 20.061 15.9224 19.1583 16.6727C18.2557 17.4231 17.6379 18.4672 17.4102 19.6272C17.1824 20.7872 17.3588 21.9913 17.9093 23.0344C18.4598 24.0774 19.3503 24.8948 20.4292 25.3474C21.508 25.7999 22.7084 25.8596 23.8258 25.5163C24.9433 25.1729 25.9086 24.4477 26.5573 23.4643C27.206 22.4809 27.498 21.3001 27.3835 20.1231C27.269 18.946 26.7551 17.8456 25.9293 17.0094C25.4619 16.5328 24.9058 16.1548 24.2931 15.8974C23.6805 15.64 23.0235 15.5082 22.3602 15.5098V15.5122Z" fill="#C6913B"/>
<path d="M22.3602 27.3527C21.2673 27.3528 20.1912 27.0798 19.2273 26.5579C18.2635 26.0361 17.4415 25.2815 16.8344 24.3611C16.2272 23.4406 15.8536 22.3827 15.7465 21.2811C15.6395 20.1794 15.8024 19.068 16.2207 18.0453C16.6391 17.0227 17.3001 16.1203 18.145 15.4182C18.99 14.7161 19.9929 14.2359 21.0649 14.0201C22.1368 13.8044 23.2448 13.8598 24.2906 14.1813C25.3364 14.5029 26.2878 15.0808 27.0604 15.8638C27.9902 16.805 28.6234 18.0043 28.88 19.3101C29.1365 20.6159 29.0049 21.9694 28.5017 23.1994C27.9985 24.4294 27.1464 25.4806 26.0532 26.2199C24.9599 26.9592 23.6748 27.3534 22.3602 27.3527ZM22.3602 15.5122C21.1925 15.5122 20.061 15.9224 19.1583 16.6727C18.2557 17.4231 17.6379 18.4672 17.4102 19.6272C17.1824 20.7872 17.3588 21.9913 17.9093 23.0344C18.4598 24.0774 19.3503 24.8948 20.4292 25.3474C21.508 25.7999 22.7084 25.8596 23.8258 25.5163C24.9433 25.1729 25.9086 24.4477 26.5573 23.4643C27.206 22.4809 27.498 21.3001 27.3835 20.1231C27.269 18.946 26.7551 17.8456 25.9293 17.0094C25.4619 16.5328 24.9058 16.1548 24.2931 15.8974C23.6805 15.64 23.0235 15.5082 22.3602 15.5098V15.5122Z" fill="url(#paint12_linear)"/>
<path d="M20.7901 21.4304C20.2659 21.4306 19.7578 21.2467 19.3526 20.91C18.9473 20.5732 18.6698 20.1046 18.5675 19.5839C18.4652 19.0632 18.5444 18.5226 18.7915 18.0544C19.0386 17.5862 19.4384 17.2192 19.9227 17.0162C20.4071 16.8131 20.9459 16.7864 21.4475 16.9407C21.9491 17.095 22.3823 17.4206 22.6733 17.8622C22.9643 18.3038 23.0952 18.834 23.0435 19.3623C22.9918 19.8906 22.7608 20.3845 22.3898 20.7596C22.1798 20.9724 21.9304 21.1411 21.6559 21.2562C21.3814 21.3713 21.0872 21.4305 20.7901 21.4304ZM20.7901 18.4612C20.6357 18.4611 20.4861 18.5152 20.3667 18.6144C20.2474 18.7135 20.1656 18.8515 20.1355 19.0048C20.1053 19.1582 20.1286 19.3174 20.2013 19.4553C20.2741 19.5932 20.3918 19.7012 20.5344 19.7611C20.677 19.8209 20.8357 19.8288 20.9834 19.7834C21.1311 19.738 21.2587 19.6421 21.3445 19.5121C21.4302 19.3821 21.4688 19.226 21.4536 19.0704C21.4384 18.9148 21.3704 18.7694 21.2612 18.6589C21.1995 18.596 21.126 18.5462 21.0452 18.5122C20.9643 18.4783 20.8776 18.461 20.7901 18.4612Z" fill="#C6913B"/>
<path d="M20.7901 21.4304C20.2659 21.4306 19.7578 21.2467 19.3526 20.91C18.9473 20.5732 18.6698 20.1046 18.5675 19.5839C18.4652 19.0632 18.5444 18.5226 18.7915 18.0544C19.0386 17.5862 19.4384 17.2192 19.9227 17.0162C20.4071 16.8131 20.9459 16.7864 21.4475 16.9407C21.9491 17.095 22.3823 17.4206 22.6733 17.8622C22.9643 18.3038 23.0952 18.834 23.0435 19.3623C22.9918 19.8906 22.7608 20.3845 22.3898 20.7596C22.1798 20.9724 21.9304 21.1411 21.6559 21.2562C21.3814 21.3713 21.0872 21.4305 20.7901 21.4304ZM20.7901 18.4612C20.6357 18.4611 20.4861 18.5152 20.3667 18.6144C20.2474 18.7135 20.1656 18.8515 20.1355 19.0048C20.1053 19.1582 20.1286 19.3174 20.2013 19.4553C20.2741 19.5932 20.3918 19.7012 20.5344 19.7611C20.677 19.8209 20.8357 19.8288 20.9834 19.7834C21.1311 19.738 21.2587 19.6421 21.3445 19.5121C21.4302 19.3821 21.4688 19.226 21.4536 19.0704C21.4384 18.9148 21.3704 18.7694 21.2612 18.6589C21.1995 18.596 21.126 18.5462 21.0452 18.5122C20.9643 18.4783 20.8776 18.461 20.7901 18.4612Z" fill="url(#paint13_linear)"/>
<path d="M31.127 33.1097C30.9149 33.1097 30.7114 33.0243 30.5615 32.8724L24.3336 26.5644C24.2572 26.4897 24.1962 26.4003 24.1543 26.3015C24.1124 26.2026 24.0903 26.0963 24.0894 25.9887C24.0885 25.8811 24.1087 25.7745 24.1489 25.6749C24.1892 25.5753 24.2485 25.4849 24.3236 25.4088C24.3988 25.3327 24.4881 25.2726 24.5864 25.2318C24.6847 25.1911 24.79 25.1706 24.8962 25.1716C25.0024 25.1725 25.1074 25.1948 25.205 25.2373C25.3026 25.2798 25.3908 25.3415 25.4646 25.4189L31.4421 31.47L32.9843 31.3808L33.0739 29.8164L32.9443 29.6852L31.6357 29.5345C31.4558 29.5138 31.2882 29.432 31.1602 29.3023C31.0322 29.1727 30.9514 29.0029 30.931 28.8207L30.8222 27.8558L29.8712 27.7465C29.6912 27.726 29.5233 27.6442 29.3952 27.5145C29.267 27.3849 29.1861 27.215 29.1657 27.0327L29.0169 25.7073L27.0972 23.7629C26.9515 23.6101 26.8708 23.4054 26.8727 23.193C26.8745 22.9806 26.9586 22.7774 27.1069 22.6272C27.2552 22.477 27.4558 22.3918 27.6656 22.3899C27.8753 22.3881 28.0773 22.4697 28.2282 22.6173L30.3423 24.7602C30.4705 24.8895 30.5512 25.0593 30.5711 25.2414L30.6799 26.2071L31.6317 26.3157C31.8116 26.3364 31.9792 26.4182 32.1072 26.5478C32.2352 26.6775 32.316 26.8473 32.3364 27.0295L32.4452 27.996L33.4003 28.1062C33.5799 28.1268 33.7474 28.2085 33.8754 28.3379L34.4561 28.9269C34.5359 29.0077 34.5979 29.1047 34.638 29.2115C34.6781 29.3183 34.6954 29.4325 34.6889 29.5466L34.5369 32.1934C34.5255 32.3918 34.4425 32.5789 34.3037 32.7193C34.1649 32.8597 33.98 32.9436 33.7842 32.955L31.1726 33.1073L31.127 33.1097Z" fill="#C6913B"/>
<path d="M31.127 33.1097C30.9149 33.1097 30.7114 33.0243 30.5615 32.8724L24.3336 26.5644C24.2572 26.4897 24.1962 26.4003 24.1543 26.3015C24.1124 26.2026 24.0903 26.0963 24.0894 25.9887C24.0885 25.8811 24.1087 25.7745 24.1489 25.6749C24.1892 25.5753 24.2485 25.4849 24.3236 25.4088C24.3988 25.3327 24.4881 25.2726 24.5864 25.2318C24.6847 25.1911 24.79 25.1706 24.8962 25.1716C25.0024 25.1725 25.1074 25.1948 25.205 25.2373C25.3026 25.2798 25.3908 25.3415 25.4646 25.4189L31.4421 31.47L32.9843 31.3808L33.0739 29.8164L32.9443 29.6852L31.6357 29.5345C31.4558 29.5138 31.2882 29.432 31.1602 29.3023C31.0322 29.1727 30.9514 29.0029 30.931 28.8207L30.8222 27.8558L29.8712 27.7465C29.6912 27.726 29.5233 27.6442 29.3952 27.5145C29.267 27.3849 29.1861 27.215 29.1657 27.0327L29.0169 25.7073L27.0972 23.7629C26.9515 23.6101 26.8708 23.4054 26.8727 23.193C26.8745 22.9806 26.9586 22.7774 27.1069 22.6272C27.2552 22.477 27.4558 22.3918 27.6656 22.3899C27.8753 22.3881 28.0773 22.4697 28.2282 22.6173L30.3423 24.7602C30.4705 24.8895 30.5512 25.0593 30.5711 25.2414L30.6799 26.2071L31.6317 26.3157C31.8116 26.3364 31.9792 26.4182 32.1072 26.5478C32.2352 26.6775 32.316 26.8473 32.3364 27.0295L32.4452 27.996L33.4003 28.1062C33.5799 28.1268 33.7474 28.2085 33.8754 28.3379L34.4561 28.9269C34.5359 29.0077 34.5979 29.1047 34.638 29.2115C34.6781 29.3183 34.6954 29.4325 34.6889 29.5466L34.5369 32.1934C34.5255 32.3918 34.4425 32.5789 34.3037 32.7193C34.1649 32.8597 33.98 32.9436 33.7842 32.955L31.1726 33.1073L31.127 33.1097Z" fill="url(#paint14_linear)"/>
<defs>
<linearGradient id="paint0_linear" x1="0" y1="0" x2="40.2012" y2="53.8748" gradientUnits="userSpaceOnUse">
<stop stop-color="white"/>
<stop offset="1" stop-color="white" stop-opacity="0"/>
</linearGradient>
<linearGradient id="paint1_linear" x1="0" y1="0" x2="40.2012" y2="53.8748" gradientUnits="userSpaceOnUse">
<stop stop-color="white"/>
<stop offset="1" stop-color="white" stop-opacity="0"/>
</linearGradient>
<linearGradient id="paint2_linear" x1="0" y1="0" x2="40.2012" y2="53.8748" gradientUnits="userSpaceOnUse">
<stop stop-color="white"/>
<stop offset="1" stop-color="white" stop-opacity="0"/>
</linearGradient>
<linearGradient id="paint3_linear" x1="0" y1="0" x2="40.2012" y2="53.8748" gradientUnits="userSpaceOnUse">
<stop stop-color="white"/>
<stop offset="1" stop-color="white" stop-opacity="0"/>
</linearGradient>
<linearGradient id="paint4_linear" x1="0" y1="0" x2="40.2012" y2="53.8748" gradientUnits="userSpaceOnUse">
<stop stop-color="white"/>
<stop offset="1" stop-color="white" stop-opacity="0"/>
</linearGradient>
<linearGradient id="paint5_linear" x1="0" y1="0" x2="40.2012" y2="53.8748" gradientUnits="userSpaceOnUse">
<stop stop-color="white"/>
<stop offset="1" stop-color="white" stop-opacity="0"/>
</linearGradient>
<linearGradient id="paint6_linear" x1="0" y1="0" x2="40.2012" y2="53.8748" gradientUnits="userSpaceOnUse">
<stop stop-color="white"/>
<stop offset="1" stop-color="white" stop-opacity="0"/>
</linearGradient>
<linearGradient id="paint7_linear" x1="0" y1="0" x2="40.2012" y2="53.8748" gradientUnits="userSpaceOnUse">
<stop stop-color="white"/>
<stop offset="1" stop-color="white" stop-opacity="0"/>
</linearGradient>
<linearGradient id="paint8_linear" x1="0" y1="0" x2="40.2012" y2="53.8748" gradientUnits="userSpaceOnUse">
<stop stop-color="white"/>
<stop offset="1" stop-color="white" stop-opacity="0"/>
</linearGradient>
<linearGradient id="paint9_linear" x1="0" y1="0" x2="40.2012" y2="53.8748" gradientUnits="userSpaceOnUse">
<stop stop-color="white"/>
<stop offset="1" stop-color="white" stop-opacity="0"/>
</linearGradient>
<linearGradient id="paint10_linear" x1="0" y1="0" x2="40.2012" y2="53.8748" gradientUnits="userSpaceOnUse">
<stop stop-color="white"/>
<stop offset="1" stop-color="white" stop-opacity="0"/>
</linearGradient>
<linearGradient id="paint11_linear" x1="0" y1="0" x2="40.2012" y2="53.8748" gradientUnits="userSpaceOnUse">
<stop stop-color="white"/>
<stop offset="1" stop-color="white" stop-opacity="0"/>
</linearGradient>
<linearGradient id="paint12_linear" x1="0" y1="0" x2="40.2012" y2="53.8748" gradientUnits="userSpaceOnUse">
<stop stop-color="white"/>
<stop offset="1" stop-color="white" stop-opacity="0"/>
</linearGradient>
<linearGradient id="paint13_linear" x1="0" y1="0" x2="40.2012" y2="53.8748" gradientUnits="userSpaceOnUse">
<stop stop-color="white"/>
<stop offset="1" stop-color="white" stop-opacity="0"/>
</linearGradient>
<linearGradient id="paint14_linear" x1="0" y1="0" x2="40.2012" y2="53.8748" gradientUnits="userSpaceOnUse">
<stop stop-color="white"/>
<stop offset="1" stop-color="white" stop-opacity="0"/>
</linearGradient>
</defs>
</svg>
