<svg width="56" height="56" viewBox="0 0 56 56" fill="none" xmlns="http://www.w3.org/2000/svg">
<path d="M52.2667 0H3.73328C1.67139 0 0 1.67139 0 3.73328V52.2667C0 54.3286 1.67139 56 3.73328 56H52.2667C54.3286 56 56 54.3286 56 52.2667V3.73328C56 1.67139 54.3286 0 52.2667 0ZM54.1334 52.2667C54.1334 53.2977 53.2977 54.1334 52.2667 54.1334H3.73328C2.70233 54.1334 1.86664 53.2977 1.86664 52.2667V17.0595C3.49615 17.4385 6.84406 18.1383 12.0633 18.8796L13.0665 24.3526V28.056C13.0665 29.3475 13.9513 30.4708 15.207 30.7728C15.5441 30.8297 15.8859 30.8574 16.2277 30.8561C18.2152 30.8801 20.1917 31.1591 22.1078 31.6867C22.6039 31.8461 23.0457 32.1417 23.3819 32.5399C23.8096 33.062 24.0834 33.6926 24.1732 34.3617C24.2069 34.5193 24.2274 34.68 24.2351 34.8415C24.2582 35.0491 24.2689 35.2576 24.2667 35.4666V46.5079C24.265 46.6301 24.2693 46.7523 24.2795 46.874C24.4 48.1904 25.1678 49.361 26.3273 49.9959C26.6166 50.148 26.9263 50.2574 27.2468 50.3215C27.363 50.3454 27.48 50.3638 27.5975 50.3757C27.7313 50.3911 27.8654 50.3992 28 50.4001C28.0748 50.4001 28.1448 50.4001 28.2081 50.3937C28.2918 50.3945 28.376 50.3873 28.4584 50.3719C28.549 50.3625 28.6396 50.3484 28.7289 50.33C29.0617 50.2651 29.383 50.1519 29.6829 49.9942C30.8378 49.3602 31.6025 48.1934 31.7222 46.8813C31.7333 46.7574 31.738 46.6326 31.7363 46.5079V35.4666C31.7346 35.2346 31.7465 35.003 31.7726 34.7723C31.7811 34.6232 31.8016 34.4753 31.8341 34.3301C31.9264 33.6696 32.2003 33.0479 32.6245 32.5339C32.9612 32.1379 33.4025 31.8439 33.8977 31.6859C35.8139 31.1586 37.7903 30.8796 39.7779 30.8561C40.1201 30.8574 40.4619 30.8297 40.7999 30.7728C42.0526 30.4682 42.934 29.3454 42.9335 28.056V24.3116L43.4868 21.3063C46.9702 21.3995 50.5389 21.4525 54.1334 21.4601V52.2667ZM26.0949 34.6864C26.0838 34.4587 26.0543 34.2318 26.0073 34.0088C25.8578 33.0206 25.4404 32.0922 24.8004 31.3244C24.2441 30.6673 23.5148 30.179 22.6949 29.9141C20.6159 29.3245 18.4681 29.0143 16.3071 28.9912C15.9722 28.9763 15.7286 28.9698 15.6539 28.9604C15.2335 28.8618 14.9352 28.4879 14.9335 28.056V25.1998H41.0669L41.0665 28.056C41.069 28.4738 40.7909 28.8412 40.388 28.9519C40.2714 28.9698 40.0278 28.9763 39.6929 28.9912C37.5331 29.0139 35.3867 29.324 33.309 29.9132C32.4899 30.1764 31.761 30.6635 31.2043 31.3188C30.5682 32.0776 30.1516 32.9954 29.9991 33.9733C29.9508 34.184 29.9196 34.398 29.9059 34.6138C29.8756 34.897 29.8624 35.1816 29.8666 35.4666V46.7023C29.8038 47.3867 29.4116 47.9977 28.8156 48.3403C28.6691 48.4164 28.5118 48.4702 28.3491 48.4997C28.3004 48.5099 28.2559 48.5138 28.194 48.5202L28.1568 48.5258C28.0372 48.5339 27.9175 48.5317 27.7983 48.5193C27.5894 48.4997 27.386 48.4407 27.1993 48.3446C26.5978 48.002 26.2021 47.3867 26.1398 46.6976C26.1342 46.6339 26.1398 46.5715 26.1398 46.5109V35.4666C26.1411 35.2059 26.1261 34.9453 26.0949 34.6864ZM35.0325 23.3332L28.8101 14H42.9335L41.216 23.3332H35.0325ZM32.7928 23.3332H28.4995L22.2766 14H26.57L32.7928 23.3332ZM26.2594 23.3332H14.7793L13.0665 14H20.034L26.2594 23.3332ZM54.1334 19.5935C50.6556 19.5858 47.2034 19.5354 43.8286 19.447L44.775 14.3072C44.8651 13.7659 44.7126 13.2122 44.358 12.7935C44.0029 12.3748 43.4821 12.1334 42.9335 12.1334H13.0665C12.5153 12.1334 11.9919 12.3773 11.6373 12.7994C11.2827 13.2216 11.1328 13.7787 11.228 14.3221L11.7087 16.9437C6.43433 16.1747 3.18469 15.4569 1.86664 15.1395V3.73328C1.86664 2.70233 2.70233 1.86664 3.73328 1.86664H52.2667C53.2977 1.86664 54.1334 2.70233 54.1334 3.73328V19.5935Z" fill="#C6913B"/>
<path d="M52.2667 0H3.73328C1.67139 0 0 1.67139 0 3.73328V52.2667C0 54.3286 1.67139 56 3.73328 56H52.2667C54.3286 56 56 54.3286 56 52.2667V3.73328C56 1.67139 54.3286 0 52.2667 0ZM54.1334 52.2667C54.1334 53.2977 53.2977 54.1334 52.2667 54.1334H3.73328C2.70233 54.1334 1.86664 53.2977 1.86664 52.2667V17.0595C3.49615 17.4385 6.84406 18.1383 12.0633 18.8796L13.0665 24.3526V28.056C13.0665 29.3475 13.9513 30.4708 15.207 30.7728C15.5441 30.8297 15.8859 30.8574 16.2277 30.8561C18.2152 30.8801 20.1917 31.1591 22.1078 31.6867C22.6039 31.8461 23.0457 32.1417 23.3819 32.5399C23.8096 33.062 24.0834 33.6926 24.1732 34.3617C24.2069 34.5193 24.2274 34.68 24.2351 34.8415C24.2582 35.0491 24.2689 35.2576 24.2667 35.4666V46.5079C24.265 46.6301 24.2693 46.7523 24.2795 46.874C24.4 48.1904 25.1678 49.361 26.3273 49.9959C26.6166 50.148 26.9263 50.2574 27.2468 50.3215C27.363 50.3454 27.48 50.3638 27.5975 50.3757C27.7313 50.3911 27.8654 50.3992 28 50.4001C28.0748 50.4001 28.1448 50.4001 28.2081 50.3937C28.2918 50.3945 28.376 50.3873 28.4584 50.3719C28.549 50.3625 28.6396 50.3484 28.7289 50.33C29.0617 50.2651 29.383 50.1519 29.6829 49.9942C30.8378 49.3602 31.6025 48.1934 31.7222 46.8813C31.7333 46.7574 31.738 46.6326 31.7363 46.5079V35.4666C31.7346 35.2346 31.7465 35.003 31.7726 34.7723C31.7811 34.6232 31.8016 34.4753 31.8341 34.3301C31.9264 33.6696 32.2003 33.0479 32.6245 32.5339C32.9612 32.1379 33.4025 31.8439 33.8977 31.6859C35.8139 31.1586 37.7903 30.8796 39.7779 30.8561C40.1201 30.8574 40.4619 30.8297 40.7999 30.7728C42.0526 30.4682 42.934 29.3454 42.9335 28.056V24.3116L43.4868 21.3063C46.9702 21.3995 50.5389 21.4525 54.1334 21.4601V52.2667ZM26.0949 34.6864C26.0838 34.4587 26.0543 34.2318 26.0073 34.0088C25.8578 33.0206 25.4404 32.0922 24.8004 31.3244C24.2441 30.6673 23.5148 30.179 22.6949 29.9141C20.6159 29.3245 18.4681 29.0143 16.3071 28.9912C15.9722 28.9763 15.7286 28.9698 15.6539 28.9604C15.2335 28.8618 14.9352 28.4879 14.9335 28.056V25.1998H41.0669L41.0665 28.056C41.069 28.4738 40.7909 28.8412 40.388 28.9519C40.2714 28.9698 40.0278 28.9763 39.6929 28.9912C37.5331 29.0139 35.3867 29.324 33.309 29.9132C32.4899 30.1764 31.761 30.6635 31.2043 31.3188C30.5682 32.0776 30.1516 32.9954 29.9991 33.9733C29.9508 34.184 29.9196 34.398 29.9059 34.6138C29.8756 34.897 29.8624 35.1816 29.8666 35.4666V46.7023C29.8038 47.3867 29.4116 47.9977 28.8156 48.3403C28.6691 48.4164 28.5118 48.4702 28.3491 48.4997C28.3004 48.5099 28.2559 48.5138 28.194 48.5202L28.1568 48.5258C28.0372 48.5339 27.9175 48.5317 27.7983 48.5193C27.5894 48.4997 27.386 48.4407 27.1993 48.3446C26.5978 48.002 26.2021 47.3867 26.1398 46.6976C26.1342 46.6339 26.1398 46.5715 26.1398 46.5109V35.4666C26.1411 35.2059 26.1261 34.9453 26.0949 34.6864ZM35.0325 23.3332L28.8101 14H42.9335L41.216 23.3332H35.0325ZM32.7928 23.3332H28.4995L22.2766 14H26.57L32.7928 23.3332ZM26.2594 23.3332H14.7793L13.0665 14H20.034L26.2594 23.3332ZM54.1334 19.5935C50.6556 19.5858 47.2034 19.5354 43.8286 19.447L44.775 14.3072C44.8651 13.7659 44.7126 13.2122 44.358 12.7935C44.0029 12.3748 43.4821 12.1334 42.9335 12.1334H13.0665C12.5153 12.1334 11.9919 12.3773 11.6373 12.7994C11.2827 13.2216 11.1328 13.7787 11.228 14.3221L11.7087 16.9437C6.43433 16.1747 3.18469 15.4569 1.86664 15.1395V3.73328C1.86664 2.70233 2.70233 1.86664 3.73328 1.86664H52.2667C53.2977 1.86664 54.1334 2.70233 54.1334 3.73328V19.5935Z" fill="url(#paint0_linear)"/>
<defs>
<linearGradient id="paint0_linear" x1="0" y1="0" x2="46.2226" y2="55.3074" gradientUnits="userSpaceOnUse">
<stop stop-color="white"/>
<stop offset="1" stop-color="white" stop-opacity="0"/>
</linearGradient>
</defs>
</svg>
