<svg width="55" height="54" viewBox="0 0 55 54" fill="none" xmlns="http://www.w3.org/2000/svg">
<path d="M54.0833 8.23729H44V0.915254C44 0.409805 43.5896 0 43.0833 0H11.9167C11.4104 0 11 0.409805 11 0.915254V13.7288H0.916667C0.410437 13.7288 0 14.1386 0 14.6441V52.1695C0 52.6749 0.410437 53.0847 0.916667 53.0847C1.4229 53.0847 1.83333 52.6749 1.83333 52.1695V15.5593H11V53.0847C11 53.5902 11.4104 54 11.9167 54H43.0833C43.5896 54 44 53.5902 44 53.0847V10.0678H53.1667V52.1695C53.1667 52.6749 53.5771 53.0847 54.0833 53.0847C54.5896 53.0847 55 52.6749 55 52.1695V9.15254C55 8.64709 54.5896 8.23729 54.0833 8.23729ZM26.5833 52.1695H22.9167V43.9322H26.5833V52.1695ZM32.0833 52.1695H28.4167V43.9322H32.0833V52.1695ZM42.1667 52.1695H33.9167V43.0169C33.9167 42.5115 33.5062 42.1017 33 42.1017H22C21.4938 42.1017 21.0833 42.5115 21.0833 43.0169V52.1695H12.8333V1.83051H42.1667V52.1695Z" fill="#C6913B"/>
<path d="M54.0833 8.23729H44V0.915254C44 0.409805 43.5896 0 43.0833 0H11.9167C11.4104 0 11 0.409805 11 0.915254V13.7288H0.916667C0.410437 13.7288 0 14.1386 0 14.6441V52.1695C0 52.6749 0.410437 53.0847 0.916667 53.0847C1.4229 53.0847 1.83333 52.6749 1.83333 52.1695V15.5593H11V53.0847C11 53.5902 11.4104 54 11.9167 54H43.0833C43.5896 54 44 53.5902 44 53.0847V10.0678H53.1667V52.1695C53.1667 52.6749 53.5771 53.0847 54.0833 53.0847C54.5896 53.0847 55 52.6749 55 52.1695V9.15254C55 8.64709 54.5896 8.23729 54.0833 8.23729ZM26.5833 52.1695H22.9167V43.9322H26.5833V52.1695ZM32.0833 52.1695H28.4167V43.9322H32.0833V52.1695ZM42.1667 52.1695H33.9167V43.0169C33.9167 42.5115 33.5062 42.1017 33 42.1017H22C21.4938 42.1017 21.0833 42.5115 21.0833 43.0169V52.1695H12.8333V1.83051H42.1667V52.1695Z" fill="url(#paint0_linear)"/>
<path d="M21.0833 3.66102H15.5833C15.0771 3.66102 14.6667 4.07082 14.6667 4.57627V10.0678C14.6667 10.5732 15.0771 10.9831 15.5833 10.9831H21.0833C21.5896 10.9831 22 10.5732 22 10.0678V4.57627C22 4.07082 21.5896 3.66102 21.0833 3.66102ZM20.1667 9.15254H16.5V5.49153H20.1667V9.15254Z" fill="#C6913B"/>
<path d="M21.0833 3.66102H15.5833C15.0771 3.66102 14.6667 4.07082 14.6667 4.57627V10.0678C14.6667 10.5732 15.0771 10.9831 15.5833 10.9831H21.0833C21.5896 10.9831 22 10.5732 22 10.0678V4.57627C22 4.07082 21.5896 3.66102 21.0833 3.66102ZM20.1667 9.15254H16.5V5.49153H20.1667V9.15254Z" fill="url(#paint1_linear)"/>
<path d="M30.25 3.66102H24.75C24.2438 3.66102 23.8333 4.07082 23.8333 4.57627V10.0678C23.8333 10.5732 24.2438 10.9831 24.75 10.9831H30.25C30.7562 10.9831 31.1667 10.5732 31.1667 10.0678V4.57627C31.1667 4.07082 30.7562 3.66102 30.25 3.66102ZM29.3333 9.15254H25.6667V5.49153H29.3333V9.15254Z" fill="#C6913B"/>
<path d="M30.25 3.66102H24.75C24.2438 3.66102 23.8333 4.07082 23.8333 4.57627V10.0678C23.8333 10.5732 24.2438 10.9831 24.75 10.9831H30.25C30.7562 10.9831 31.1667 10.5732 31.1667 10.0678V4.57627C31.1667 4.07082 30.7562 3.66102 30.25 3.66102ZM29.3333 9.15254H25.6667V5.49153H29.3333V9.15254Z" fill="url(#paint2_linear)"/>
<path d="M39.4167 3.66102H33.9167C33.4104 3.66102 33 4.07082 33 4.57627V10.0678C33 10.5732 33.4104 10.9831 33.9167 10.9831H39.4167C39.9229 10.9831 40.3333 10.5732 40.3333 10.0678V4.57627C40.3333 4.07082 39.9229 3.66102 39.4167 3.66102ZM38.5 9.15254H34.8333V5.49153H38.5V9.15254Z" fill="#C6913B"/>
<path d="M39.4167 3.66102H33.9167C33.4104 3.66102 33 4.07082 33 4.57627V10.0678C33 10.5732 33.4104 10.9831 33.9167 10.9831H39.4167C39.9229 10.9831 40.3333 10.5732 40.3333 10.0678V4.57627C40.3333 4.07082 39.9229 3.66102 39.4167 3.66102ZM38.5 9.15254H34.8333V5.49153H38.5V9.15254Z" fill="url(#paint3_linear)"/>
<path d="M21.0833 12.8136H15.5833C15.0771 12.8136 14.6667 13.2234 14.6667 13.7288V19.2203C14.6667 19.7258 15.0771 20.1356 15.5833 20.1356H21.0833C21.5896 20.1356 22 19.7258 22 19.2203V13.7288C22 13.2234 21.5896 12.8136 21.0833 12.8136ZM20.1667 18.3051H16.5V14.6441H20.1667V18.3051Z" fill="#C6913B"/>
<path d="M21.0833 12.8136H15.5833C15.0771 12.8136 14.6667 13.2234 14.6667 13.7288V19.2203C14.6667 19.7258 15.0771 20.1356 15.5833 20.1356H21.0833C21.5896 20.1356 22 19.7258 22 19.2203V13.7288C22 13.2234 21.5896 12.8136 21.0833 12.8136ZM20.1667 18.3051H16.5V14.6441H20.1667V18.3051Z" fill="url(#paint4_linear)"/>
<path d="M30.25 12.8136H24.75C24.2438 12.8136 23.8333 13.2234 23.8333 13.7288V19.2203C23.8333 19.7258 24.2438 20.1356 24.75 20.1356H30.25C30.7562 20.1356 31.1667 19.7258 31.1667 19.2203V13.7288C31.1667 13.2234 30.7562 12.8136 30.25 12.8136ZM29.3333 18.3051H25.6667V14.6441H29.3333V18.3051Z" fill="#C6913B"/>
<path d="M30.25 12.8136H24.75C24.2438 12.8136 23.8333 13.2234 23.8333 13.7288V19.2203C23.8333 19.7258 24.2438 20.1356 24.75 20.1356H30.25C30.7562 20.1356 31.1667 19.7258 31.1667 19.2203V13.7288C31.1667 13.2234 30.7562 12.8136 30.25 12.8136ZM29.3333 18.3051H25.6667V14.6441H29.3333V18.3051Z" fill="url(#paint5_linear)"/>
<path d="M39.4167 12.8136H33.9167C33.4104 12.8136 33 13.2234 33 13.7288V19.2203C33 19.7258 33.4104 20.1356 33.9167 20.1356H39.4167C39.9229 20.1356 40.3333 19.7258 40.3333 19.2203V13.7288C40.3333 13.2234 39.9229 12.8136 39.4167 12.8136ZM38.5 18.3051H34.8333V14.6441H38.5V18.3051Z" fill="#C6913B"/>
<path d="M39.4167 12.8136H33.9167C33.4104 12.8136 33 13.2234 33 13.7288V19.2203C33 19.7258 33.4104 20.1356 33.9167 20.1356H39.4167C39.9229 20.1356 40.3333 19.7258 40.3333 19.2203V13.7288C40.3333 13.2234 39.9229 12.8136 39.4167 12.8136ZM38.5 18.3051H34.8333V14.6441H38.5V18.3051Z" fill="url(#paint6_linear)"/>
<path d="M21.0833 21.9661H15.5833C15.0771 21.9661 14.6667 22.3759 14.6667 22.8814V28.3729C14.6667 28.8783 15.0771 29.2881 15.5833 29.2881H21.0833C21.5896 29.2881 22 28.8783 22 28.3729V22.8814C22 22.3759 21.5896 21.9661 21.0833 21.9661ZM20.1667 27.4576H16.5V23.7966H20.1667V27.4576Z" fill="#C6913B"/>
<path d="M21.0833 21.9661H15.5833C15.0771 21.9661 14.6667 22.3759 14.6667 22.8814V28.3729C14.6667 28.8783 15.0771 29.2881 15.5833 29.2881H21.0833C21.5896 29.2881 22 28.8783 22 28.3729V22.8814C22 22.3759 21.5896 21.9661 21.0833 21.9661ZM20.1667 27.4576H16.5V23.7966H20.1667V27.4576Z" fill="url(#paint7_linear)"/>
<path d="M30.25 21.9661H24.75C24.2438 21.9661 23.8333 22.3759 23.8333 22.8814V28.3729C23.8333 28.8783 24.2438 29.2881 24.75 29.2881H30.25C30.7562 29.2881 31.1667 28.8783 31.1667 28.3729V22.8814C31.1667 22.3759 30.7562 21.9661 30.25 21.9661ZM29.3333 27.4576H25.6667V23.7966H29.3333V27.4576Z" fill="#C6913B"/>
<path d="M30.25 21.9661H24.75C24.2438 21.9661 23.8333 22.3759 23.8333 22.8814V28.3729C23.8333 28.8783 24.2438 29.2881 24.75 29.2881H30.25C30.7562 29.2881 31.1667 28.8783 31.1667 28.3729V22.8814C31.1667 22.3759 30.7562 21.9661 30.25 21.9661ZM29.3333 27.4576H25.6667V23.7966H29.3333V27.4576Z" fill="url(#paint8_linear)"/>
<path d="M39.4167 21.9661H33.9167C33.4104 21.9661 33 22.3759 33 22.8814V28.3729C33 28.8783 33.4104 29.2881 33.9167 29.2881H39.4167C39.9229 29.2881 40.3333 28.8783 40.3333 28.3729V22.8814C40.3333 22.3759 39.9229 21.9661 39.4167 21.9661ZM38.5 27.4576H34.8333V23.7966H38.5V27.4576Z" fill="#C6913B"/>
<path d="M39.4167 21.9661H33.9167C33.4104 21.9661 33 22.3759 33 22.8814V28.3729C33 28.8783 33.4104 29.2881 33.9167 29.2881H39.4167C39.9229 29.2881 40.3333 28.8783 40.3333 28.3729V22.8814C40.3333 22.3759 39.9229 21.9661 39.4167 21.9661ZM38.5 27.4576H34.8333V23.7966H38.5V27.4576Z" fill="url(#paint9_linear)"/>
<path d="M21.0833 31.1186H15.5833C15.0771 31.1186 14.6667 31.5284 14.6667 32.0339V37.5254C14.6667 38.0309 15.0771 38.4407 15.5833 38.4407H21.0833C21.5896 38.4407 22 38.0309 22 37.5254V32.0339C22 31.5284 21.5896 31.1186 21.0833 31.1186ZM20.1667 36.6102H16.5V32.9492H20.1667V36.6102Z" fill="#C6913B"/>
<path d="M21.0833 31.1186H15.5833C15.0771 31.1186 14.6667 31.5284 14.6667 32.0339V37.5254C14.6667 38.0309 15.0771 38.4407 15.5833 38.4407H21.0833C21.5896 38.4407 22 38.0309 22 37.5254V32.0339C22 31.5284 21.5896 31.1186 21.0833 31.1186ZM20.1667 36.6102H16.5V32.9492H20.1667V36.6102Z" fill="url(#paint10_linear)"/>
<path d="M30.25 31.1186H24.75C24.2438 31.1186 23.8333 31.5284 23.8333 32.0339V37.5254C23.8333 38.0309 24.2438 38.4407 24.75 38.4407H30.25C30.7562 38.4407 31.1667 38.0309 31.1667 37.5254V32.0339C31.1667 31.5284 30.7562 31.1186 30.25 31.1186ZM29.3333 36.6102H25.6667V32.9492H29.3333V36.6102Z" fill="#C6913B"/>
<path d="M30.25 31.1186H24.75C24.2438 31.1186 23.8333 31.5284 23.8333 32.0339V37.5254C23.8333 38.0309 24.2438 38.4407 24.75 38.4407H30.25C30.7562 38.4407 31.1667 38.0309 31.1667 37.5254V32.0339C31.1667 31.5284 30.7562 31.1186 30.25 31.1186ZM29.3333 36.6102H25.6667V32.9492H29.3333V36.6102Z" fill="url(#paint11_linear)"/>
<path d="M39.4167 31.1186H33.9167C33.4104 31.1186 33 31.5284 33 32.0339V37.5254C33 38.0309 33.4104 38.4407 33.9167 38.4407H39.4167C39.9229 38.4407 40.3333 38.0309 40.3333 37.5254V32.0339C40.3333 31.5284 39.9229 31.1186 39.4167 31.1186ZM38.5 36.6102H34.8333V32.9492H38.5V36.6102Z" fill="#C6913B"/>
<path d="M39.4167 31.1186H33.9167C33.4104 31.1186 33 31.5284 33 32.0339V37.5254C33 38.0309 33.4104 38.4407 33.9167 38.4407H39.4167C39.9229 38.4407 40.3333 38.0309 40.3333 37.5254V32.0339C40.3333 31.5284 39.9229 31.1186 39.4167 31.1186ZM38.5 36.6102H34.8333V32.9492H38.5V36.6102Z" fill="url(#paint12_linear)"/>
<path d="M5.5 17.3898H4.58333C4.0771 17.3898 3.66667 17.7996 3.66667 18.3051V19.2203C3.66667 19.7258 4.0771 20.1356 4.58333 20.1356H5.5C6.00623 20.1356 6.41667 19.7258 6.41667 19.2203V18.3051C6.41667 17.7996 6.00623 17.3898 5.5 17.3898Z" fill="#C6913B"/>
<path d="M5.5 17.3898H4.58333C4.0771 17.3898 3.66667 17.7996 3.66667 18.3051V19.2203C3.66667 19.7258 4.0771 20.1356 4.58333 20.1356H5.5C6.00623 20.1356 6.41667 19.7258 6.41667 19.2203V18.3051C6.41667 17.7996 6.00623 17.3898 5.5 17.3898Z" fill="url(#paint13_linear)"/>
<path d="M9.16667 17.3898H8.25C7.74377 17.3898 7.33333 17.7996 7.33333 18.3051V19.2203C7.33333 19.7258 7.74377 20.1356 8.25 20.1356H9.16667C9.6729 20.1356 10.0833 19.7258 10.0833 19.2203V18.3051C10.0833 17.7996 9.6729 17.3898 9.16667 17.3898Z" fill="#C6913B"/>
<path d="M9.16667 17.3898H8.25C7.74377 17.3898 7.33333 17.7996 7.33333 18.3051V19.2203C7.33333 19.7258 7.74377 20.1356 8.25 20.1356H9.16667C9.6729 20.1356 10.0833 19.7258 10.0833 19.2203V18.3051C10.0833 17.7996 9.6729 17.3898 9.16667 17.3898Z" fill="url(#paint14_linear)"/>
<path d="M5.5 21.0508H4.58333C4.0771 21.0508 3.66667 21.4607 3.66667 21.9661V22.8814C3.66667 23.3868 4.0771 23.7966 4.58333 23.7966H5.5C6.00623 23.7966 6.41667 23.3868 6.41667 22.8814V21.9661C6.41667 21.4607 6.00623 21.0508 5.5 21.0508Z" fill="#C6913B"/>
<path d="M5.5 21.0508H4.58333C4.0771 21.0508 3.66667 21.4607 3.66667 21.9661V22.8814C3.66667 23.3868 4.0771 23.7966 4.58333 23.7966H5.5C6.00623 23.7966 6.41667 23.3868 6.41667 22.8814V21.9661C6.41667 21.4607 6.00623 21.0508 5.5 21.0508Z" fill="url(#paint15_linear)"/>
<path d="M9.16667 21.0508H8.25C7.74377 21.0508 7.33333 21.4607 7.33333 21.9661V22.8814C7.33333 23.3868 7.74377 23.7966 8.25 23.7966H9.16667C9.6729 23.7966 10.0833 23.3868 10.0833 22.8814V21.9661C10.0833 21.4607 9.6729 21.0508 9.16667 21.0508Z" fill="#C6913B"/>
<path d="M9.16667 21.0508H8.25C7.74377 21.0508 7.33333 21.4607 7.33333 21.9661V22.8814C7.33333 23.3868 7.74377 23.7966 8.25 23.7966H9.16667C9.6729 23.7966 10.0833 23.3868 10.0833 22.8814V21.9661C10.0833 21.4607 9.6729 21.0508 9.16667 21.0508Z" fill="url(#paint16_linear)"/>
<path d="M5.5 24.7119H4.58333C4.0771 24.7119 3.66667 25.1217 3.66667 25.6271V26.5424C3.66667 27.0478 4.0771 27.4576 4.58333 27.4576H5.5C6.00623 27.4576 6.41667 27.0478 6.41667 26.5424V25.6271C6.41667 25.1217 6.00623 24.7119 5.5 24.7119Z" fill="#C6913B"/>
<path d="M5.5 24.7119H4.58333C4.0771 24.7119 3.66667 25.1217 3.66667 25.6271V26.5424C3.66667 27.0478 4.0771 27.4576 4.58333 27.4576H5.5C6.00623 27.4576 6.41667 27.0478 6.41667 26.5424V25.6271C6.41667 25.1217 6.00623 24.7119 5.5 24.7119Z" fill="url(#paint17_linear)"/>
<path d="M9.16667 24.7119H8.25C7.74377 24.7119 7.33333 25.1217 7.33333 25.6271V26.5424C7.33333 27.0478 7.74377 27.4576 8.25 27.4576H9.16667C9.6729 27.4576 10.0833 27.0478 10.0833 26.5424V25.6271C10.0833 25.1217 9.6729 24.7119 9.16667 24.7119Z" fill="#C6913B"/>
<path d="M9.16667 24.7119H8.25C7.74377 24.7119 7.33333 25.1217 7.33333 25.6271V26.5424C7.33333 27.0478 7.74377 27.4576 8.25 27.4576H9.16667C9.6729 27.4576 10.0833 27.0478 10.0833 26.5424V25.6271C10.0833 25.1217 9.6729 24.7119 9.16667 24.7119Z" fill="url(#paint18_linear)"/>
<path d="M5.5 28.3729H4.58333C4.0771 28.3729 3.66667 28.7827 3.66667 29.2881V30.2034C3.66667 30.7088 4.0771 31.1186 4.58333 31.1186H5.5C6.00623 31.1186 6.41667 30.7088 6.41667 30.2034V29.2881C6.41667 28.7827 6.00623 28.3729 5.5 28.3729Z" fill="#C6913B"/>
<path d="M5.5 28.3729H4.58333C4.0771 28.3729 3.66667 28.7827 3.66667 29.2881V30.2034C3.66667 30.7088 4.0771 31.1186 4.58333 31.1186H5.5C6.00623 31.1186 6.41667 30.7088 6.41667 30.2034V29.2881C6.41667 28.7827 6.00623 28.3729 5.5 28.3729Z" fill="url(#paint19_linear)"/>
<path d="M9.16667 28.3729H8.25C7.74377 28.3729 7.33333 28.7827 7.33333 29.2881V30.2034C7.33333 30.7088 7.74377 31.1186 8.25 31.1186H9.16667C9.6729 31.1186 10.0833 30.7088 10.0833 30.2034V29.2881C10.0833 28.7827 9.6729 28.3729 9.16667 28.3729Z" fill="#C6913B"/>
<path d="M9.16667 28.3729H8.25C7.74377 28.3729 7.33333 28.7827 7.33333 29.2881V30.2034C7.33333 30.7088 7.74377 31.1186 8.25 31.1186H9.16667C9.6729 31.1186 10.0833 30.7088 10.0833 30.2034V29.2881C10.0833 28.7827 9.6729 28.3729 9.16667 28.3729Z" fill="url(#paint20_linear)"/>
<path d="M5.5 32.0339H4.58333C4.0771 32.0339 3.66667 32.4437 3.66667 32.9492V33.8644C3.66667 34.3699 4.0771 34.7797 4.58333 34.7797H5.5C6.00623 34.7797 6.41667 34.3699 6.41667 33.8644V32.9492C6.41667 32.4437 6.00623 32.0339 5.5 32.0339Z" fill="#C6913B"/>
<path d="M5.5 32.0339H4.58333C4.0771 32.0339 3.66667 32.4437 3.66667 32.9492V33.8644C3.66667 34.3699 4.0771 34.7797 4.58333 34.7797H5.5C6.00623 34.7797 6.41667 34.3699 6.41667 33.8644V32.9492C6.41667 32.4437 6.00623 32.0339 5.5 32.0339Z" fill="url(#paint21_linear)"/>
<path d="M9.16667 32.0339H8.25C7.74377 32.0339 7.33333 32.4437 7.33333 32.9492V33.8644C7.33333 34.3699 7.74377 34.7797 8.25 34.7797H9.16667C9.6729 34.7797 10.0833 34.3699 10.0833 33.8644V32.9492C10.0833 32.4437 9.6729 32.0339 9.16667 32.0339Z" fill="#C6913B"/>
<path d="M9.16667 32.0339H8.25C7.74377 32.0339 7.33333 32.4437 7.33333 32.9492V33.8644C7.33333 34.3699 7.74377 34.7797 8.25 34.7797H9.16667C9.6729 34.7797 10.0833 34.3699 10.0833 33.8644V32.9492C10.0833 32.4437 9.6729 32.0339 9.16667 32.0339Z" fill="url(#paint22_linear)"/>
<path d="M5.5 35.6949H4.58333C4.0771 35.6949 3.66667 36.1047 3.66667 36.6102V37.5254C3.66667 38.0309 4.0771 38.4407 4.58333 38.4407H5.5C6.00623 38.4407 6.41667 38.0309 6.41667 37.5254V36.6102C6.41667 36.1047 6.00623 35.6949 5.5 35.6949Z" fill="#C6913B"/>
<path d="M5.5 35.6949H4.58333C4.0771 35.6949 3.66667 36.1047 3.66667 36.6102V37.5254C3.66667 38.0309 4.0771 38.4407 4.58333 38.4407H5.5C6.00623 38.4407 6.41667 38.0309 6.41667 37.5254V36.6102C6.41667 36.1047 6.00623 35.6949 5.5 35.6949Z" fill="url(#paint23_linear)"/>
<path d="M9.16667 35.6949H8.25C7.74377 35.6949 7.33333 36.1047 7.33333 36.6102V37.5254C7.33333 38.0309 7.74377 38.4407 8.25 38.4407H9.16667C9.6729 38.4407 10.0833 38.0309 10.0833 37.5254V36.6102C10.0833 36.1047 9.6729 35.6949 9.16667 35.6949Z" fill="#C6913B"/>
<path d="M9.16667 35.6949H8.25C7.74377 35.6949 7.33333 36.1047 7.33333 36.6102V37.5254C7.33333 38.0309 7.74377 38.4407 8.25 38.4407H9.16667C9.6729 38.4407 10.0833 38.0309 10.0833 37.5254V36.6102C10.0833 36.1047 9.6729 35.6949 9.16667 35.6949Z" fill="url(#paint24_linear)"/>
<path d="M5.5 39.3559H4.58333C4.0771 39.3559 3.66667 39.7657 3.66667 40.2712V41.1864C3.66667 41.6919 4.0771 42.1017 4.58333 42.1017H5.5C6.00623 42.1017 6.41667 41.6919 6.41667 41.1864V40.2712C6.41667 39.7657 6.00623 39.3559 5.5 39.3559Z" fill="#C6913B"/>
<path d="M5.5 39.3559H4.58333C4.0771 39.3559 3.66667 39.7657 3.66667 40.2712V41.1864C3.66667 41.6919 4.0771 42.1017 4.58333 42.1017H5.5C6.00623 42.1017 6.41667 41.6919 6.41667 41.1864V40.2712C6.41667 39.7657 6.00623 39.3559 5.5 39.3559Z" fill="url(#paint25_linear)"/>
<path d="M9.16667 39.3559H8.25C7.74377 39.3559 7.33333 39.7657 7.33333 40.2712V41.1864C7.33333 41.6919 7.74377 42.1017 8.25 42.1017H9.16667C9.6729 42.1017 10.0833 41.6919 10.0833 41.1864V40.2712C10.0833 39.7657 9.6729 39.3559 9.16667 39.3559Z" fill="#C6913B"/>
<path d="M9.16667 39.3559H8.25C7.74377 39.3559 7.33333 39.7657 7.33333 40.2712V41.1864C7.33333 41.6919 7.74377 42.1017 8.25 42.1017H9.16667C9.6729 42.1017 10.0833 41.6919 10.0833 41.1864V40.2712C10.0833 39.7657 9.6729 39.3559 9.16667 39.3559Z" fill="url(#paint26_linear)"/>
<path d="M5.5 43.0169H4.58333C4.0771 43.0169 3.66667 43.4268 3.66667 43.9322V44.8475C3.66667 45.3529 4.0771 45.7627 4.58333 45.7627H5.5C6.00623 45.7627 6.41667 45.3529 6.41667 44.8475V43.9322C6.41667 43.4268 6.00623 43.0169 5.5 43.0169Z" fill="#C6913B"/>
<path d="M5.5 43.0169H4.58333C4.0771 43.0169 3.66667 43.4268 3.66667 43.9322V44.8475C3.66667 45.3529 4.0771 45.7627 4.58333 45.7627H5.5C6.00623 45.7627 6.41667 45.3529 6.41667 44.8475V43.9322C6.41667 43.4268 6.00623 43.0169 5.5 43.0169Z" fill="url(#paint27_linear)"/>
<path d="M9.16667 43.0169H8.25C7.74377 43.0169 7.33333 43.4268 7.33333 43.9322V44.8475C7.33333 45.3529 7.74377 45.7627 8.25 45.7627H9.16667C9.6729 45.7627 10.0833 45.3529 10.0833 44.8475V43.9322C10.0833 43.4268 9.6729 43.0169 9.16667 43.0169Z" fill="#C6913B"/>
<path d="M9.16667 43.0169H8.25C7.74377 43.0169 7.33333 43.4268 7.33333 43.9322V44.8475C7.33333 45.3529 7.74377 45.7627 8.25 45.7627H9.16667C9.6729 45.7627 10.0833 45.3529 10.0833 44.8475V43.9322C10.0833 43.4268 9.6729 43.0169 9.16667 43.0169Z" fill="url(#paint28_linear)"/>
<path d="M5.5 46.678H4.58333C4.0771 46.678 3.66667 47.0878 3.66667 47.5932V48.5085C3.66667 49.0139 4.0771 49.4237 4.58333 49.4237H5.5C6.00623 49.4237 6.41667 49.0139 6.41667 48.5085V47.5932C6.41667 47.0878 6.00623 46.678 5.5 46.678Z" fill="#C6913B"/>
<path d="M5.5 46.678H4.58333C4.0771 46.678 3.66667 47.0878 3.66667 47.5932V48.5085C3.66667 49.0139 4.0771 49.4237 4.58333 49.4237H5.5C6.00623 49.4237 6.41667 49.0139 6.41667 48.5085V47.5932C6.41667 47.0878 6.00623 46.678 5.5 46.678Z" fill="url(#paint29_linear)"/>
<path d="M9.16667 46.678H8.25C7.74377 46.678 7.33333 47.0878 7.33333 47.5932V48.5085C7.33333 49.0139 7.74377 49.4237 8.25 49.4237H9.16667C9.6729 49.4237 10.0833 49.0139 10.0833 48.5085V47.5932C10.0833 47.0878 9.6729 46.678 9.16667 46.678Z" fill="#C6913B"/>
<path d="M9.16667 46.678H8.25C7.74377 46.678 7.33333 47.0878 7.33333 47.5932V48.5085C7.33333 49.0139 7.74377 49.4237 8.25 49.4237H9.16667C9.6729 49.4237 10.0833 49.0139 10.0833 48.5085V47.5932C10.0833 47.0878 9.6729 46.678 9.16667 46.678Z" fill="url(#paint30_linear)"/>
<path d="M50.4167 11.8983H46.75C46.2438 11.8983 45.8333 12.3081 45.8333 12.8136V16.4746C45.8333 16.98 46.2438 17.3898 46.75 17.3898H50.4167C50.9229 17.3898 51.3333 16.98 51.3333 16.4746V12.8136C51.3333 12.3081 50.9229 11.8983 50.4167 11.8983ZM49.5 15.5593H47.6667V13.7288H49.5V15.5593Z" fill="#C6913B"/>
<path d="M50.4167 11.8983H46.75C46.2438 11.8983 45.8333 12.3081 45.8333 12.8136V16.4746C45.8333 16.98 46.2438 17.3898 46.75 17.3898H50.4167C50.9229 17.3898 51.3333 16.98 51.3333 16.4746V12.8136C51.3333 12.3081 50.9229 11.8983 50.4167 11.8983ZM49.5 15.5593H47.6667V13.7288H49.5V15.5593Z" fill="url(#paint31_linear)"/>
<path d="M50.4167 19.2203H46.75C46.2438 19.2203 45.8333 19.6301 45.8333 20.1356V23.7966C45.8333 24.3021 46.2438 24.7119 46.75 24.7119H50.4167C50.9229 24.7119 51.3333 24.3021 51.3333 23.7966V20.1356C51.3333 19.6301 50.9229 19.2203 50.4167 19.2203ZM49.5 22.8814H47.6667V21.0508H49.5V22.8814Z" fill="#C6913B"/>
<path d="M50.4167 19.2203H46.75C46.2438 19.2203 45.8333 19.6301 45.8333 20.1356V23.7966C45.8333 24.3021 46.2438 24.7119 46.75 24.7119H50.4167C50.9229 24.7119 51.3333 24.3021 51.3333 23.7966V20.1356C51.3333 19.6301 50.9229 19.2203 50.4167 19.2203ZM49.5 22.8814H47.6667V21.0508H49.5V22.8814Z" fill="url(#paint32_linear)"/>
<path d="M50.4167 26.5424H46.75C46.2438 26.5424 45.8333 26.9522 45.8333 27.4576V31.1186C45.8333 31.6241 46.2438 32.0339 46.75 32.0339H50.4167C50.9229 32.0339 51.3333 31.6241 51.3333 31.1186V27.4576C51.3333 26.9522 50.9229 26.5424 50.4167 26.5424ZM49.5 30.2034H47.6667V28.3729H49.5V30.2034Z" fill="#C6913B"/>
<path d="M50.4167 26.5424H46.75C46.2438 26.5424 45.8333 26.9522 45.8333 27.4576V31.1186C45.8333 31.6241 46.2438 32.0339 46.75 32.0339H50.4167C50.9229 32.0339 51.3333 31.6241 51.3333 31.1186V27.4576C51.3333 26.9522 50.9229 26.5424 50.4167 26.5424ZM49.5 30.2034H47.6667V28.3729H49.5V30.2034Z" fill="url(#paint33_linear)"/>
<path d="M50.4167 33.8644H46.75C46.2438 33.8644 45.8333 34.2742 45.8333 34.7797V38.4407C45.8333 38.9461 46.2438 39.3559 46.75 39.3559H50.4167C50.9229 39.3559 51.3333 38.9461 51.3333 38.4407V34.7797C51.3333 34.2742 50.9229 33.8644 50.4167 33.8644ZM49.5 37.5254H47.6667V35.6949H49.5V37.5254Z" fill="#C6913B"/>
<path d="M50.4167 33.8644H46.75C46.2438 33.8644 45.8333 34.2742 45.8333 34.7797V38.4407C45.8333 38.9461 46.2438 39.3559 46.75 39.3559H50.4167C50.9229 39.3559 51.3333 38.9461 51.3333 38.4407V34.7797C51.3333 34.2742 50.9229 33.8644 50.4167 33.8644ZM49.5 37.5254H47.6667V35.6949H49.5V37.5254Z" fill="url(#paint34_linear)"/>
<path d="M50.4167 41.1864H46.75C46.2438 41.1864 45.8333 41.5962 45.8333 42.1017V45.7627C45.8333 46.2682 46.2438 46.678 46.75 46.678H50.4167C50.9229 46.678 51.3333 46.2682 51.3333 45.7627V42.1017C51.3333 41.5962 50.9229 41.1864 50.4167 41.1864ZM49.5 44.8475H47.6667V43.0169H49.5V44.8475Z" fill="#C6913B"/>
<path d="M50.4167 41.1864H46.75C46.2438 41.1864 45.8333 41.5962 45.8333 42.1017V45.7627C45.8333 46.2682 46.2438 46.678 46.75 46.678H50.4167C50.9229 46.678 51.3333 46.2682 51.3333 45.7627V42.1017C51.3333 41.5962 50.9229 41.1864 50.4167 41.1864ZM49.5 44.8475H47.6667V43.0169H49.5V44.8475Z" fill="url(#paint35_linear)"/>
<defs>
<linearGradient id="paint0_linear" x1="0" y1="0" x2="44.4196" y2="54.1343" gradientUnits="userSpaceOnUse">
<stop stop-color="white"/>
<stop offset="1" stop-color="white" stop-opacity="0"/>
</linearGradient>
<linearGradient id="paint1_linear" x1="0" y1="0" x2="44.4196" y2="54.1343" gradientUnits="userSpaceOnUse">
<stop stop-color="white"/>
<stop offset="1" stop-color="white" stop-opacity="0"/>
</linearGradient>
<linearGradient id="paint2_linear" x1="0" y1="0" x2="44.4196" y2="54.1343" gradientUnits="userSpaceOnUse">
<stop stop-color="white"/>
<stop offset="1" stop-color="white" stop-opacity="0"/>
</linearGradient>
<linearGradient id="paint3_linear" x1="0" y1="0" x2="44.4196" y2="54.1343" gradientUnits="userSpaceOnUse">
<stop stop-color="white"/>
<stop offset="1" stop-color="white" stop-opacity="0"/>
</linearGradient>
<linearGradient id="paint4_linear" x1="0" y1="0" x2="44.4196" y2="54.1343" gradientUnits="userSpaceOnUse">
<stop stop-color="white"/>
<stop offset="1" stop-color="white" stop-opacity="0"/>
</linearGradient>
<linearGradient id="paint5_linear" x1="0" y1="0" x2="44.4196" y2="54.1343" gradientUnits="userSpaceOnUse">
<stop stop-color="white"/>
<stop offset="1" stop-color="white" stop-opacity="0"/>
</linearGradient>
<linearGradient id="paint6_linear" x1="0" y1="0" x2="44.4196" y2="54.1343" gradientUnits="userSpaceOnUse">
<stop stop-color="white"/>
<stop offset="1" stop-color="white" stop-opacity="0"/>
</linearGradient>
<linearGradient id="paint7_linear" x1="0" y1="0" x2="44.4196" y2="54.1343" gradientUnits="userSpaceOnUse">
<stop stop-color="white"/>
<stop offset="1" stop-color="white" stop-opacity="0"/>
</linearGradient>
<linearGradient id="paint8_linear" x1="0" y1="0" x2="44.4196" y2="54.1343" gradientUnits="userSpaceOnUse">
<stop stop-color="white"/>
<stop offset="1" stop-color="white" stop-opacity="0"/>
</linearGradient>
<linearGradient id="paint9_linear" x1="0" y1="0" x2="44.4196" y2="54.1343" gradientUnits="userSpaceOnUse">
<stop stop-color="white"/>
<stop offset="1" stop-color="white" stop-opacity="0"/>
</linearGradient>
<linearGradient id="paint10_linear" x1="0" y1="0" x2="44.4196" y2="54.1343" gradientUnits="userSpaceOnUse">
<stop stop-color="white"/>
<stop offset="1" stop-color="white" stop-opacity="0"/>
</linearGradient>
<linearGradient id="paint11_linear" x1="0" y1="0" x2="44.4196" y2="54.1343" gradientUnits="userSpaceOnUse">
<stop stop-color="white"/>
<stop offset="1" stop-color="white" stop-opacity="0"/>
</linearGradient>
<linearGradient id="paint12_linear" x1="0" y1="0" x2="44.4196" y2="54.1343" gradientUnits="userSpaceOnUse">
<stop stop-color="white"/>
<stop offset="1" stop-color="white" stop-opacity="0"/>
</linearGradient>
<linearGradient id="paint13_linear" x1="0" y1="0" x2="44.4196" y2="54.1343" gradientUnits="userSpaceOnUse">
<stop stop-color="white"/>
<stop offset="1" stop-color="white" stop-opacity="0"/>
</linearGradient>
<linearGradient id="paint14_linear" x1="0" y1="0" x2="44.4196" y2="54.1343" gradientUnits="userSpaceOnUse">
<stop stop-color="white"/>
<stop offset="1" stop-color="white" stop-opacity="0"/>
</linearGradient>
<linearGradient id="paint15_linear" x1="0" y1="0" x2="44.4196" y2="54.1343" gradientUnits="userSpaceOnUse">
<stop stop-color="white"/>
<stop offset="1" stop-color="white" stop-opacity="0"/>
</linearGradient>
<linearGradient id="paint16_linear" x1="0" y1="0" x2="44.4196" y2="54.1343" gradientUnits="userSpaceOnUse">
<stop stop-color="white"/>
<stop offset="1" stop-color="white" stop-opacity="0"/>
</linearGradient>
<linearGradient id="paint17_linear" x1="0" y1="0" x2="44.4196" y2="54.1343" gradientUnits="userSpaceOnUse">
<stop stop-color="white"/>
<stop offset="1" stop-color="white" stop-opacity="0"/>
</linearGradient>
<linearGradient id="paint18_linear" x1="0" y1="0" x2="44.4196" y2="54.1343" gradientUnits="userSpaceOnUse">
<stop stop-color="white"/>
<stop offset="1" stop-color="white" stop-opacity="0"/>
</linearGradient>
<linearGradient id="paint19_linear" x1="0" y1="0" x2="44.4196" y2="54.1343" gradientUnits="userSpaceOnUse">
<stop stop-color="white"/>
<stop offset="1" stop-color="white" stop-opacity="0"/>
</linearGradient>
<linearGradient id="paint20_linear" x1="0" y1="0" x2="44.4196" y2="54.1343" gradientUnits="userSpaceOnUse">
<stop stop-color="white"/>
<stop offset="1" stop-color="white" stop-opacity="0"/>
</linearGradient>
<linearGradient id="paint21_linear" x1="0" y1="0" x2="44.4196" y2="54.1343" gradientUnits="userSpaceOnUse">
<stop stop-color="white"/>
<stop offset="1" stop-color="white" stop-opacity="0"/>
</linearGradient>
<linearGradient id="paint22_linear" x1="0" y1="0" x2="44.4196" y2="54.1343" gradientUnits="userSpaceOnUse">
<stop stop-color="white"/>
<stop offset="1" stop-color="white" stop-opacity="0"/>
</linearGradient>
<linearGradient id="paint23_linear" x1="0" y1="0" x2="44.4196" y2="54.1343" gradientUnits="userSpaceOnUse">
<stop stop-color="white"/>
<stop offset="1" stop-color="white" stop-opacity="0"/>
</linearGradient>
<linearGradient id="paint24_linear" x1="0" y1="0" x2="44.4196" y2="54.1343" gradientUnits="userSpaceOnUse">
<stop stop-color="white"/>
<stop offset="1" stop-color="white" stop-opacity="0"/>
</linearGradient>
<linearGradient id="paint25_linear" x1="0" y1="0" x2="44.4196" y2="54.1343" gradientUnits="userSpaceOnUse">
<stop stop-color="white"/>
<stop offset="1" stop-color="white" stop-opacity="0"/>
</linearGradient>
<linearGradient id="paint26_linear" x1="0" y1="0" x2="44.4196" y2="54.1343" gradientUnits="userSpaceOnUse">
<stop stop-color="white"/>
<stop offset="1" stop-color="white" stop-opacity="0"/>
</linearGradient>
<linearGradient id="paint27_linear" x1="0" y1="0" x2="44.4196" y2="54.1343" gradientUnits="userSpaceOnUse">
<stop stop-color="white"/>
<stop offset="1" stop-color="white" stop-opacity="0"/>
</linearGradient>
<linearGradient id="paint28_linear" x1="0" y1="0" x2="44.4196" y2="54.1343" gradientUnits="userSpaceOnUse">
<stop stop-color="white"/>
<stop offset="1" stop-color="white" stop-opacity="0"/>
</linearGradient>
<linearGradient id="paint29_linear" x1="0" y1="0" x2="44.4196" y2="54.1343" gradientUnits="userSpaceOnUse">
<stop stop-color="white"/>
<stop offset="1" stop-color="white" stop-opacity="0"/>
</linearGradient>
<linearGradient id="paint30_linear" x1="0" y1="0" x2="44.4196" y2="54.1343" gradientUnits="userSpaceOnUse">
<stop stop-color="white"/>
<stop offset="1" stop-color="white" stop-opacity="0"/>
</linearGradient>
<linearGradient id="paint31_linear" x1="0" y1="0" x2="44.4196" y2="54.1343" gradientUnits="userSpaceOnUse">
<stop stop-color="white"/>
<stop offset="1" stop-color="white" stop-opacity="0"/>
</linearGradient>
<linearGradient id="paint32_linear" x1="0" y1="0" x2="44.4196" y2="54.1343" gradientUnits="userSpaceOnUse">
<stop stop-color="white"/>
<stop offset="1" stop-color="white" stop-opacity="0"/>
</linearGradient>
<linearGradient id="paint33_linear" x1="0" y1="0" x2="44.4196" y2="54.1343" gradientUnits="userSpaceOnUse">
<stop stop-color="white"/>
<stop offset="1" stop-color="white" stop-opacity="0"/>
</linearGradient>
<linearGradient id="paint34_linear" x1="0" y1="0" x2="44.4196" y2="54.1343" gradientUnits="userSpaceOnUse">
<stop stop-color="white"/>
<stop offset="1" stop-color="white" stop-opacity="0"/>
</linearGradient>
<linearGradient id="paint35_linear" x1="0" y1="0" x2="44.4196" y2="54.1343" gradientUnits="userSpaceOnUse">
<stop stop-color="white"/>
<stop offset="1" stop-color="white" stop-opacity="0"/>
</linearGradient>
</defs>
</svg>
