<svg width="75" height="80" viewBox="0 0 75 80" fill="none" xmlns="http://www.w3.org/2000/svg">
<path d="M41.9041 37.4974L42.1037 36.5175L41.9041 37.4974ZM64.4054 78.7779C64.6625 79.2667 65.2672 79.4545 65.756 79.1974L73.7211 75.0073C74.2099 74.7502 74.3976 74.1455 74.1405 73.6567C73.8834 73.1679 73.2787 72.9801 72.7899 73.2373L65.7098 76.9618L61.9853 69.8817C61.7282 69.3929 61.1235 69.2051 60.6347 69.4622C60.146 69.7194 59.9582 70.324 60.2153 70.8128L64.4054 78.7779ZM0.43541 2.80234C7.62684 5.04901 11.5526 7.89728 13.9805 10.934C16.4336 14.0022 17.432 17.3355 18.6458 20.843C19.8486 24.3186 21.2514 27.9033 24.6016 31.0316C27.9452 34.1538 33.1237 36.7297 41.7045 38.4773L42.1037 36.5175C33.726 34.8114 28.9426 32.3488 25.9665 29.5698C22.997 26.7969 21.7224 23.6178 20.5358 20.1889C19.3602 16.792 18.2572 13.0804 15.5426 9.68509C12.8029 6.25841 8.49476 3.22483 1.0318 0.893332L0.43541 2.80234ZM41.7045 38.4773C50.0096 40.1687 55.5098 43.4925 59.1278 47.4624C62.7514 51.4384 64.5509 56.133 65.3306 60.6647C66.1111 65.2017 65.8637 69.5464 65.4154 72.7686C65.1917 74.3767 64.919 75.6973 64.7033 76.6125C64.5955 77.0699 64.502 77.4255 64.4363 77.6644C64.4034 77.7839 64.3774 77.8741 64.36 77.9333C64.3513 77.9629 64.3448 77.9847 64.3406 77.9985C64.3385 78.0055 64.337 78.0104 64.3362 78.0133C64.3357 78.0147 64.3354 78.0156 64.3353 78.016C64.3352 78.0163 64.3353 78.0162 64.3352 78.0163C64.3353 78.0161 64.3354 78.0158 65.2904 78.3124C66.2454 78.609 66.2456 78.6084 66.2458 78.6077C66.2459 78.6073 66.2462 78.6064 66.2464 78.6056C66.2469 78.604 66.2476 78.6018 66.2484 78.5991C66.2501 78.5938 66.2523 78.5864 66.2552 78.577C66.2608 78.5582 66.2689 78.5313 66.2791 78.4965C66.2995 78.4269 66.3285 78.3259 66.3645 78.1954C66.4364 77.9342 66.5361 77.5546 66.65 77.0713C66.8777 76.1052 67.1627 74.7229 67.3963 73.0442C67.8626 69.6929 68.128 65.129 67.3016 60.3256C66.4743 55.517 64.5471 50.4396 60.606 46.1152C56.6594 41.7848 50.7571 38.2799 42.1037 36.5175L41.7045 38.4773Z" fill="white"/>
</svg>
