<svg width="56" height="51" viewBox="0 0 56 51" fill="none" xmlns="http://www.w3.org/2000/svg">
<path d="M55.7691 19.4916C55.084 16.9418 52.7215 14.8653 49.8913 14.3257C49.6577 14.2811 49.4248 14.2889 49.1907 14.2634C47.085 5.94894 39.0588 0 29.5579 0H26.4466C16.9474 0 8.91989 5.95013 6.81318 14.2637C5.32452 14.4355 3.90221 14.954 2.74079 15.853C0.999687 17.202 0 19.1692 0 21.25C0 23.4649 1.17279 25.5567 3.11135 26.8876V39.6667C3.11135 41.7552 4.37179 43.5625 6.2227 44.5453V46.75C6.2227 49.0936 8.31614 51 10.8898 51C13.4635 51 15.5569 49.0936 15.5569 46.75V45.3333H40.4479V46.75C40.4479 49.0936 42.5413 51 45.115 51C47.6886 51 49.7821 49.0936 49.7821 46.75V44.5453C51.633 43.5625 52.8934 41.7552 52.8934 39.6667V26.8891C55.3802 25.1901 56.5271 22.3181 55.7691 19.4916ZM26.4444 2.83329H29.5554C37.4329 2.83329 44.1033 7.67045 46.047 14.4828C45.0664 14.7431 44.1328 15.1499 43.3215 15.7493C41.4925 17.1023 40.4444 19.1069 40.4444 21.25V28.3333H15.5556V21.5529C15.5556 18.2419 13.1972 15.3564 9.95443 14.475C11.8998 7.6678 18.5705 2.83329 26.4444 2.83329ZM43.5556 32.5833C43.5556 33.3649 42.8583 34 42 34H14C13.1418 34 12.4444 33.365 12.4444 32.5833C12.4444 31.8017 13.1416 31.1666 14 31.1666H42C42.8582 31.1667 43.5556 31.8017 43.5556 32.5833ZM12.4444 46.75C12.4444 47.5316 11.7472 48.1667 10.8888 48.1667C10.0306 48.1667 9.33333 47.5316 9.33333 46.75V45.3333H12.4444V46.75ZM46.6666 46.75C46.6666 47.5316 45.9694 48.1667 45.111 48.1667C44.2528 48.1667 43.5554 47.5317 43.5554 46.75V45.3333H46.6666V46.75ZM50.5509 24.9065C50.0724 25.1596 49.7777 25.6259 49.7777 26.1309V39.6667C49.7777 41.2286 48.3816 42.5 46.6666 42.5H9.33333C7.61833 42.5 6.22227 41.2286 6.22227 39.6667V26.1309C6.22227 25.6272 5.92754 25.1611 5.44906 24.9065C3.9846 24.1304 3.11106 22.7635 3.11106 21.25C3.11106 20.0021 3.71116 18.8206 4.75621 18.0114C5.81656 17.1895 7.17616 16.852 8.57222 17.0595C10.7794 17.386 12.4444 19.3186 12.4444 21.5529V28.5943C10.6377 29.181 9.33333 30.7388 9.33333 32.5833C9.33333 34.9269 11.4266 36.8333 14 36.8333H42C44.5733 36.8333 46.6666 34.9269 46.6666 32.5833C46.6666 30.7388 45.3623 29.181 43.5556 28.5943V21.25C43.5556 19.9633 44.1846 18.7611 45.2828 17.9491C46.3963 17.1259 47.8046 16.823 49.2492 17.0983C50.9324 17.4193 52.3361 18.6519 52.7416 20.164C53.2535 22.0691 52.3937 23.9298 50.5509 24.9065Z" fill="#C6913B"/>
<path d="M55.7691 19.4916C55.084 16.9418 52.7215 14.8653 49.8913 14.3257C49.6577 14.2811 49.4248 14.2889 49.1907 14.2634C47.085 5.94894 39.0588 0 29.5579 0H26.4466C16.9474 0 8.91989 5.95013 6.81318 14.2637C5.32452 14.4355 3.90221 14.954 2.74079 15.853C0.999687 17.202 0 19.1692 0 21.25C0 23.4649 1.17279 25.5567 3.11135 26.8876V39.6667C3.11135 41.7552 4.37179 43.5625 6.2227 44.5453V46.75C6.2227 49.0936 8.31614 51 10.8898 51C13.4635 51 15.5569 49.0936 15.5569 46.75V45.3333H40.4479V46.75C40.4479 49.0936 42.5413 51 45.115 51C47.6886 51 49.7821 49.0936 49.7821 46.75V44.5453C51.633 43.5625 52.8934 41.7552 52.8934 39.6667V26.8891C55.3802 25.1901 56.5271 22.3181 55.7691 19.4916ZM26.4444 2.83329H29.5554C37.4329 2.83329 44.1033 7.67045 46.047 14.4828C45.0664 14.7431 44.1328 15.1499 43.3215 15.7493C41.4925 17.1023 40.4444 19.1069 40.4444 21.25V28.3333H15.5556V21.5529C15.5556 18.2419 13.1972 15.3564 9.95443 14.475C11.8998 7.6678 18.5705 2.83329 26.4444 2.83329ZM43.5556 32.5833C43.5556 33.3649 42.8583 34 42 34H14C13.1418 34 12.4444 33.365 12.4444 32.5833C12.4444 31.8017 13.1416 31.1666 14 31.1666H42C42.8582 31.1667 43.5556 31.8017 43.5556 32.5833ZM12.4444 46.75C12.4444 47.5316 11.7472 48.1667 10.8888 48.1667C10.0306 48.1667 9.33333 47.5316 9.33333 46.75V45.3333H12.4444V46.75ZM46.6666 46.75C46.6666 47.5316 45.9694 48.1667 45.111 48.1667C44.2528 48.1667 43.5554 47.5317 43.5554 46.75V45.3333H46.6666V46.75ZM50.5509 24.9065C50.0724 25.1596 49.7777 25.6259 49.7777 26.1309V39.6667C49.7777 41.2286 48.3816 42.5 46.6666 42.5H9.33333C7.61833 42.5 6.22227 41.2286 6.22227 39.6667V26.1309C6.22227 25.6272 5.92754 25.1611 5.44906 24.9065C3.9846 24.1304 3.11106 22.7635 3.11106 21.25C3.11106 20.0021 3.71116 18.8206 4.75621 18.0114C5.81656 17.1895 7.17616 16.852 8.57222 17.0595C10.7794 17.386 12.4444 19.3186 12.4444 21.5529V28.5943C10.6377 29.181 9.33333 30.7388 9.33333 32.5833C9.33333 34.9269 11.4266 36.8333 14 36.8333H42C44.5733 36.8333 46.6666 34.9269 46.6666 32.5833C46.6666 30.7388 45.3623 29.181 43.5556 28.5943V21.25C43.5556 19.9633 44.1846 18.7611 45.2828 17.9491C46.3963 17.1259 47.8046 16.823 49.2492 17.0983C50.9324 17.4193 52.3361 18.6519 52.7416 20.164C53.2535 22.0691 52.3937 23.9298 50.5509 24.9065Z" fill="url(#paint0_linear)"/>
<defs>
<linearGradient id="paint0_linear" x1="0" y1="0" x2="41.2296" y2="54.1696" gradientUnits="userSpaceOnUse">
<stop stop-color="white"/>
<stop offset="1" stop-color="white" stop-opacity="0"/>
</linearGradient>
</defs>
</svg>
