<svg width="55" height="58" viewBox="0 0 55 58" fill="none" xmlns="http://www.w3.org/2000/svg">
<path d="M48.2422 5.80077H43.4179C43.3946 4.66156 43.1692 3.5356 42.7522 2.47549C42.2161 0.963889 40.7735 -0.0334099 39.1726 0.000856058C37.2429 0.0781882 35.7378 1.3445 34.416 2.45615C32.3796 4.33664 29.7754 5.483 27.0156 5.71377V2.90081C27.0156 1.29921 25.7197 0.000856058 24.1211 0.000856058H23.1562C21.5576 0.000856058 20.2617 1.29921 20.2617 2.90081V5.80077H17.3672C15.7686 5.80077 14.4726 7.09913 14.4726 8.70073V9.66738C14.4726 11.269 15.7686 12.5673 17.3672 12.5673H20.2617V39.6336H17.3672C16.3014 39.6336 15.4375 40.4992 15.4375 41.5669V56.0667C15.4375 57.1344 16.3014 58 17.3672 58H24.6903C25.2013 57.9978 25.6905 57.7927 26.0508 57.4297L28.376 55.1H41.0927L43.4179 57.4297C43.7782 57.7927 44.2674 57.9978 44.7784 58H52.1015C53.1673 58 54.0312 57.1344 54.0312 56.0667V41.5669C54.0312 40.4992 53.1673 39.6336 52.1015 39.6336H51.1367V32.867C51.1367 32.3332 50.7047 31.9004 50.1718 31.9004H46.3125C45.8783 31.9004 46.0713 31.8424 42.4531 34.5587C39.0568 32.0067 39.0472 31.9004 38.5937 31.9004H34.7343C34.2015 31.9004 33.7695 32.3332 33.7695 32.867V39.6336H27.0156V12.5673H38.5937V18.3673C38.0609 18.3673 37.6289 18.8 37.6289 19.3339C37.6289 19.8678 38.0609 20.3006 38.5937 20.3006H38.9604L41.4883 25.3658V31.9004C41.4883 32.4343 41.9202 32.867 42.4531 32.867C42.986 32.867 43.4179 32.4343 43.4179 31.9004V25.3658L45.9458 20.3006H46.3125C46.8453 20.3006 47.2773 19.8678 47.2773 19.3339C47.2773 18.8 46.8453 18.3673 46.3125 18.3673V12.5673H48.2422C49.8408 12.5673 51.1367 11.269 51.1367 9.66738V8.70073C51.1367 7.09913 49.8408 5.80077 48.2422 5.80077ZM39.2498 1.93416C40.919 1.8375 41.3725 4.12846 41.4593 5.80077H33.0748C35.7571 4.28313 37.1851 2.01149 39.2498 1.93416ZM22.1914 2.90081C22.1914 2.36695 22.6234 1.93416 23.1562 1.93416H24.1211C24.6539 1.93416 25.0859 2.36695 25.0859 2.90081V5.80077H22.1914V2.90081ZM52.1015 56.0667H44.7784L42.4531 53.7371C42.0929 53.374 41.6036 53.1689 41.0927 53.1667H28.376C27.8651 53.1689 27.3758 53.374 27.0156 53.7371L24.6903 56.0667H17.3672V41.5669H52.1015V56.0667ZM35.6992 33.8337H38.2753L41.8742 36.5403C42.2172 36.7981 42.6889 36.7981 43.032 36.5403L46.6309 33.8337H49.207V39.6336H35.6992V33.8337ZM25.0859 39.6336H22.1914V12.5673H25.0859V39.6336ZM42.4531 22.9685L41.1216 20.3006H43.7846L42.4531 22.9685ZM44.3828 18.3673H40.5234V12.5673H44.3828V18.3673ZM49.207 9.66738C49.207 10.2012 48.775 10.634 48.2422 10.634H17.3672C16.8343 10.634 16.4023 10.2012 16.4023 9.66738V8.70073C16.4023 8.16686 16.8343 7.73408 17.3672 7.73408H48.2422C48.775 7.73408 49.207 8.16686 49.207 8.70073V9.66738Z" fill="#C6913B"/>
<path d="M48.2422 5.80077H43.4179C43.3946 4.66156 43.1692 3.5356 42.7522 2.47549C42.2161 0.963889 40.7735 -0.0334099 39.1726 0.000856058C37.2429 0.0781882 35.7378 1.3445 34.416 2.45615C32.3796 4.33664 29.7754 5.483 27.0156 5.71377V2.90081C27.0156 1.29921 25.7197 0.000856058 24.1211 0.000856058H23.1562C21.5576 0.000856058 20.2617 1.29921 20.2617 2.90081V5.80077H17.3672C15.7686 5.80077 14.4726 7.09913 14.4726 8.70073V9.66738C14.4726 11.269 15.7686 12.5673 17.3672 12.5673H20.2617V39.6336H17.3672C16.3014 39.6336 15.4375 40.4992 15.4375 41.5669V56.0667C15.4375 57.1344 16.3014 58 17.3672 58H24.6903C25.2013 57.9978 25.6905 57.7927 26.0508 57.4297L28.376 55.1H41.0927L43.4179 57.4297C43.7782 57.7927 44.2674 57.9978 44.7784 58H52.1015C53.1673 58 54.0312 57.1344 54.0312 56.0667V41.5669C54.0312 40.4992 53.1673 39.6336 52.1015 39.6336H51.1367V32.867C51.1367 32.3332 50.7047 31.9004 50.1718 31.9004H46.3125C45.8783 31.9004 46.0713 31.8424 42.4531 34.5587C39.0568 32.0067 39.0472 31.9004 38.5937 31.9004H34.7343C34.2015 31.9004 33.7695 32.3332 33.7695 32.867V39.6336H27.0156V12.5673H38.5937V18.3673C38.0609 18.3673 37.6289 18.8 37.6289 19.3339C37.6289 19.8678 38.0609 20.3006 38.5937 20.3006H38.9604L41.4883 25.3658V31.9004C41.4883 32.4343 41.9202 32.867 42.4531 32.867C42.986 32.867 43.4179 32.4343 43.4179 31.9004V25.3658L45.9458 20.3006H46.3125C46.8453 20.3006 47.2773 19.8678 47.2773 19.3339C47.2773 18.8 46.8453 18.3673 46.3125 18.3673V12.5673H48.2422C49.8408 12.5673 51.1367 11.269 51.1367 9.66738V8.70073C51.1367 7.09913 49.8408 5.80077 48.2422 5.80077ZM39.2498 1.93416C40.919 1.8375 41.3725 4.12846 41.4593 5.80077H33.0748C35.7571 4.28313 37.1851 2.01149 39.2498 1.93416ZM22.1914 2.90081C22.1914 2.36695 22.6234 1.93416 23.1562 1.93416H24.1211C24.6539 1.93416 25.0859 2.36695 25.0859 2.90081V5.80077H22.1914V2.90081ZM52.1015 56.0667H44.7784L42.4531 53.7371C42.0929 53.374 41.6036 53.1689 41.0927 53.1667H28.376C27.8651 53.1689 27.3758 53.374 27.0156 53.7371L24.6903 56.0667H17.3672V41.5669H52.1015V56.0667ZM35.6992 33.8337H38.2753L41.8742 36.5403C42.2172 36.7981 42.6889 36.7981 43.032 36.5403L46.6309 33.8337H49.207V39.6336H35.6992V33.8337ZM25.0859 39.6336H22.1914V12.5673H25.0859V39.6336ZM42.4531 22.9685L41.1216 20.3006H43.7846L42.4531 22.9685ZM44.3828 18.3673H40.5234V12.5673H44.3828V18.3673ZM49.207 9.66738C49.207 10.2012 48.775 10.634 48.2422 10.634H17.3672C16.8343 10.634 16.4023 10.2012 16.4023 9.66738V8.70073C16.4023 8.16686 16.8343 7.73408 17.3672 7.73408H48.2422C48.775 7.73408 49.207 8.16686 49.207 8.70073V9.66738Z" fill="url(#paint0_linear)"/>
<path d="M30.1899 22.5142C30.0073 22.6957 29.9045 22.9428 29.9045 23.2005C29.9045 23.4583 30.0073 23.7053 30.1899 23.8868L35.979 29.6868C36.3573 30.0658 36.9707 30.0658 37.3491 29.6868C37.7274 29.3077 37.7274 28.6932 37.3491 28.3141L31.56 22.5142C31.3788 22.3312 31.1322 22.2283 30.875 22.2283C30.6177 22.2283 30.3711 22.3312 30.1899 22.5142Z" fill="#C6913B"/>
<path d="M30.1899 22.5142C30.0073 22.6957 29.9045 22.9428 29.9045 23.2005C29.9045 23.4583 30.0073 23.7053 30.1899 23.8868L35.979 29.6868C36.3573 30.0658 36.9707 30.0658 37.3491 29.6868C37.7274 29.3077 37.7274 28.6932 37.3491 28.3141L31.56 22.5142C31.3788 22.3312 31.1322 22.2283 30.875 22.2283C30.6177 22.2283 30.3711 22.3312 30.1899 22.5142Z" fill="url(#paint1_linear)"/>
<path d="M48.2422 29.9671C48.4986 29.9686 48.7451 29.8677 48.9272 29.6868L54.7163 23.8868C55.0946 23.5078 55.0946 22.8932 54.7163 22.5142C54.3379 22.1351 53.7245 22.1351 53.3462 22.5142L47.5571 28.3141C47.2788 28.5907 47.1951 29.0084 47.3455 29.3711C47.4958 29.7338 47.8502 29.9694 48.2422 29.9671Z" fill="#C6913B"/>
<path d="M48.2422 29.9671C48.4986 29.9686 48.7451 29.8677 48.9272 29.6868L54.7163 23.8868C55.0946 23.5078 55.0946 22.8932 54.7163 22.5142C54.3379 22.1351 53.7245 22.1351 53.3462 22.5142L47.5571 28.3141C47.2788 28.5907 47.1951 29.0084 47.3455 29.3711C47.4958 29.7338 47.8502 29.9694 48.2422 29.9671Z" fill="url(#paint2_linear)"/>
<path d="M38.1209 25.9651C38.5791 25.6928 38.7303 25.1 38.4586 24.6408L35.5641 19.8076C35.4124 19.4713 35.0829 19.2509 34.7148 19.2395C34.3467 19.228 34.0042 19.4275 33.832 19.7537C33.6598 20.0799 33.688 20.4758 33.9046 20.7742L36.7991 25.6075C36.9264 25.8312 37.1376 25.9948 37.3857 26.0619C37.6339 26.1291 37.8985 26.0942 38.1209 25.9651Z" fill="#C6913B"/>
<path d="M38.1209 25.9651C38.5791 25.6928 38.7303 25.1 38.4586 24.6408L35.5641 19.8076C35.4124 19.4713 35.0829 19.2509 34.7148 19.2395C34.3467 19.228 34.0042 19.4275 33.832 19.7537C33.6598 20.0799 33.688 20.4758 33.9046 20.7742L36.7991 25.6075C36.9264 25.8312 37.1376 25.9948 37.3857 26.0619C37.6339 26.1291 37.8985 26.0942 38.1209 25.9651Z" fill="url(#paint3_linear)"/>
<path d="M48.1071 25.6268L51.0016 20.7936C51.2054 20.3418 51.0351 19.8089 50.6073 19.5598C50.1796 19.3106 49.6331 19.426 49.3421 19.8269L46.4475 24.6602C46.2309 24.9586 46.2028 25.3545 46.375 25.6807C46.5472 26.0068 46.8897 26.2063 47.2578 26.1949C47.6259 26.1835 47.9554 25.963 48.1071 25.6268Z" fill="#C6913B"/>
<path d="M48.1071 25.6268L51.0016 20.7936C51.2054 20.3418 51.0351 19.8089 50.6073 19.5598C50.1796 19.3106 49.6331 19.426 49.3421 19.8269L46.4475 24.6602C46.2309 24.9586 46.2028 25.3545 46.375 25.6807C46.5472 26.0068 46.8897 26.2063 47.2578 26.1949C47.6259 26.1835 47.9554 25.963 48.1071 25.6268Z" fill="url(#paint4_linear)"/>
<path d="M49.207 43.5002H46.3125C45.7796 43.5002 45.3476 43.933 45.3476 44.4669C45.3476 45.0007 45.7796 45.4335 46.3125 45.4335H49.207C49.7399 45.4335 50.1718 45.0007 50.1718 44.4669C50.1718 43.933 49.7399 43.5002 49.207 43.5002Z" fill="#C6913B"/>
<path d="M49.207 43.5002H46.3125C45.7796 43.5002 45.3476 43.933 45.3476 44.4669C45.3476 45.0007 45.7796 45.4335 46.3125 45.4335H49.207C49.7399 45.4335 50.1718 45.0007 50.1718 44.4669C50.1718 43.933 49.7399 43.5002 49.207 43.5002Z" fill="url(#paint5_linear)"/>
<path d="M49.207 47.3668H46.3125C45.7796 47.3668 45.3476 47.7996 45.3476 48.3335C45.3476 48.8673 45.7796 49.3001 46.3125 49.3001H49.207C49.7399 49.3001 50.1718 48.8673 50.1718 48.3335C50.1718 47.7996 49.7399 47.3668 49.207 47.3668Z" fill="#C6913B"/>
<path d="M49.207 47.3668H46.3125C45.7796 47.3668 45.3476 47.7996 45.3476 48.3335C45.3476 48.8673 45.7796 49.3001 46.3125 49.3001H49.207C49.7399 49.3001 50.1718 48.8673 50.1718 48.3335C50.1718 47.7996 49.7399 47.3668 49.207 47.3668Z" fill="url(#paint6_linear)"/>
<path d="M1.92969 36.7336H3.85937V56.0667C3.85937 57.1344 4.72332 58 5.78906 58H11.5781C12.6439 58 13.5078 57.1344 13.5078 56.0667V36.7336H15.4375C16.5032 36.7336 17.3672 35.8681 17.3672 34.8003V25.1338C17.3672 24.0661 16.5032 23.2005 15.4375 23.2005H1.92969C0.86395 23.2005 0 24.0661 0 25.1338V34.8003C0 35.8681 0.86395 36.7336 1.92969 36.7336ZM11.5781 56.0667H5.78906V36.7336H11.5781V56.0667ZM1.92969 25.1338H15.4375V34.8003H1.92969V25.1338Z" fill="#C6913B"/>
<path d="M1.92969 36.7336H3.85937V56.0667C3.85937 57.1344 4.72332 58 5.78906 58H11.5781C12.6439 58 13.5078 57.1344 13.5078 56.0667V36.7336H15.4375C16.5032 36.7336 17.3672 35.8681 17.3672 34.8003V25.1338C17.3672 24.0661 16.5032 23.2005 15.4375 23.2005H1.92969C0.86395 23.2005 0 24.0661 0 25.1338V34.8003C0 35.8681 0.86395 36.7336 1.92969 36.7336ZM11.5781 56.0667H5.78906V36.7336H11.5781V56.0667ZM1.92969 25.1338H15.4375V34.8003H1.92969V25.1338Z" fill="url(#paint7_linear)"/>
<path d="M9.64843 29.0004H11.5781C12.111 29.0004 12.543 28.5676 12.543 28.0338C12.543 27.4999 12.111 27.0671 11.5781 27.0671H9.64843C9.11556 27.0671 8.68359 27.4999 8.68359 28.0338C8.68359 28.5676 9.11556 29.0004 9.64843 29.0004Z" fill="#C6913B"/>
<path d="M9.64843 29.0004H11.5781C12.111 29.0004 12.543 28.5676 12.543 28.0338C12.543 27.4999 12.111 27.0671 11.5781 27.0671H9.64843C9.11556 27.0671 8.68359 27.4999 8.68359 28.0338C8.68359 28.5676 9.11556 29.0004 9.64843 29.0004Z" fill="url(#paint8_linear)"/>
<path d="M9.64843 32.867H11.5781C12.111 32.867 12.543 32.4342 12.543 31.9004C12.543 31.3665 12.111 30.9337 11.5781 30.9337H9.64843C9.11556 30.9337 8.68359 31.3665 8.68359 31.9004C8.68359 32.4342 9.11556 32.867 9.64843 32.867Z" fill="#C6913B"/>
<path d="M9.64843 32.867H11.5781C12.111 32.867 12.543 32.4342 12.543 31.9004C12.543 31.3665 12.111 30.9337 11.5781 30.9337H9.64843C9.11556 30.9337 8.68359 31.3665 8.68359 31.9004C8.68359 32.4342 9.11556 32.867 9.64843 32.867Z" fill="url(#paint9_linear)"/>
<path d="M5.24875 28.8361C5.57385 29.0705 6.0097 29.0793 6.34396 28.8582C6.67821 28.6371 6.84135 28.2321 6.7539 27.8404C6.68013 27.4056 6.32191 27.076 5.8832 27.0392C5.44449 27.0024 5.03655 27.2677 4.89163 27.6842C4.74671 28.1007 4.90157 28.5627 5.26804 28.8071L5.24875 28.8361Z" fill="#C6913B"/>
<path d="M5.24875 28.8361C5.57385 29.0705 6.0097 29.0793 6.34396 28.8582C6.67821 28.6371 6.84135 28.2321 6.7539 27.8404C6.68013 27.4056 6.32191 27.076 5.8832 27.0392C5.44449 27.0024 5.03655 27.2677 4.89163 27.6842C4.74671 28.1007 4.90157 28.5627 5.26804 28.8071L5.24875 28.8361Z" fill="url(#paint10_linear)"/>
<path d="M5.24875 32.7027C5.6157 32.9512 6.10439 32.9175 6.43387 32.6209C6.76335 32.3244 6.84897 31.8411 6.64152 31.4491C6.43407 31.057 5.98683 30.8568 5.55693 30.9636C5.12702 31.0703 4.82488 31.4566 4.82422 31.9004C4.82373 32.2219 4.98286 32.5226 5.24875 32.7027Z" fill="#C6913B"/>
<path d="M5.24875 32.7027C5.6157 32.9512 6.10439 32.9175 6.43387 32.6209C6.76335 32.3244 6.84897 31.8411 6.64152 31.4491C6.43407 31.057 5.98683 30.8568 5.55693 30.9636C5.12702 31.0703 4.82488 31.4566 4.82422 31.9004C4.82373 32.2219 4.98286 32.5226 5.24875 32.7027Z" fill="url(#paint11_linear)"/>
<path d="M21.2265 43.5002H20.2617C19.7288 43.5002 19.2969 43.933 19.2969 44.4669C19.2969 45.0007 19.7288 45.4335 20.2617 45.4335H21.2265C21.7594 45.4335 22.1914 45.0007 22.1914 44.4669C22.1914 43.933 21.7594 43.5002 21.2265 43.5002Z" fill="#C6913B"/>
<path d="M21.2265 43.5002H20.2617C19.7288 43.5002 19.2969 43.933 19.2969 44.4669C19.2969 45.0007 19.7288 45.4335 20.2617 45.4335H21.2265C21.7594 45.4335 22.1914 45.0007 22.1914 44.4669C22.1914 43.933 21.7594 43.5002 21.2265 43.5002Z" fill="url(#paint12_linear)"/>
<path d="M32.8047 43.5002H25.0859C24.5531 43.5002 24.1211 43.933 24.1211 44.4669C24.1211 45.0007 24.5531 45.4335 25.0859 45.4335H32.8047C33.3375 45.4335 33.7695 45.0007 33.7695 44.4669C33.7695 43.933 33.3375 43.5002 32.8047 43.5002Z" fill="#C6913B"/>
<path d="M32.8047 43.5002H25.0859C24.5531 43.5002 24.1211 43.933 24.1211 44.4669C24.1211 45.0007 24.5531 45.4335 25.0859 45.4335H32.8047C33.3375 45.4335 33.7695 45.0007 33.7695 44.4669C33.7695 43.933 33.3375 43.5002 32.8047 43.5002Z" fill="url(#paint13_linear)"/>
<defs>
<linearGradient id="paint0_linear" x1="0" y1="0" x2="48.2606" y2="54.7591" gradientUnits="userSpaceOnUse">
<stop stop-color="white"/>
<stop offset="1" stop-color="white" stop-opacity="0"/>
</linearGradient>
<linearGradient id="paint1_linear" x1="0" y1="0" x2="48.2606" y2="54.7591" gradientUnits="userSpaceOnUse">
<stop stop-color="white"/>
<stop offset="1" stop-color="white" stop-opacity="0"/>
</linearGradient>
<linearGradient id="paint2_linear" x1="0" y1="0" x2="48.2606" y2="54.7591" gradientUnits="userSpaceOnUse">
<stop stop-color="white"/>
<stop offset="1" stop-color="white" stop-opacity="0"/>
</linearGradient>
<linearGradient id="paint3_linear" x1="0" y1="0" x2="48.2606" y2="54.7591" gradientUnits="userSpaceOnUse">
<stop stop-color="white"/>
<stop offset="1" stop-color="white" stop-opacity="0"/>
</linearGradient>
<linearGradient id="paint4_linear" x1="0" y1="0" x2="48.2606" y2="54.7591" gradientUnits="userSpaceOnUse">
<stop stop-color="white"/>
<stop offset="1" stop-color="white" stop-opacity="0"/>
</linearGradient>
<linearGradient id="paint5_linear" x1="0" y1="0" x2="48.2606" y2="54.7591" gradientUnits="userSpaceOnUse">
<stop stop-color="white"/>
<stop offset="1" stop-color="white" stop-opacity="0"/>
</linearGradient>
<linearGradient id="paint6_linear" x1="0" y1="0" x2="48.2606" y2="54.7591" gradientUnits="userSpaceOnUse">
<stop stop-color="white"/>
<stop offset="1" stop-color="white" stop-opacity="0"/>
</linearGradient>
<linearGradient id="paint7_linear" x1="0" y1="0" x2="48.2606" y2="54.7591" gradientUnits="userSpaceOnUse">
<stop stop-color="white"/>
<stop offset="1" stop-color="white" stop-opacity="0"/>
</linearGradient>
<linearGradient id="paint8_linear" x1="0" y1="0" x2="48.2606" y2="54.7591" gradientUnits="userSpaceOnUse">
<stop stop-color="white"/>
<stop offset="1" stop-color="white" stop-opacity="0"/>
</linearGradient>
<linearGradient id="paint9_linear" x1="0" y1="0" x2="48.2606" y2="54.7591" gradientUnits="userSpaceOnUse">
<stop stop-color="white"/>
<stop offset="1" stop-color="white" stop-opacity="0"/>
</linearGradient>
<linearGradient id="paint10_linear" x1="0" y1="0" x2="48.2606" y2="54.7591" gradientUnits="userSpaceOnUse">
<stop stop-color="white"/>
<stop offset="1" stop-color="white" stop-opacity="0"/>
</linearGradient>
<linearGradient id="paint11_linear" x1="0" y1="0" x2="48.2606" y2="54.7591" gradientUnits="userSpaceOnUse">
<stop stop-color="white"/>
<stop offset="1" stop-color="white" stop-opacity="0"/>
</linearGradient>
<linearGradient id="paint12_linear" x1="0" y1="0" x2="48.2606" y2="54.7591" gradientUnits="userSpaceOnUse">
<stop stop-color="white"/>
<stop offset="1" stop-color="white" stop-opacity="0"/>
</linearGradient>
<linearGradient id="paint13_linear" x1="0" y1="0" x2="48.2606" y2="54.7591" gradientUnits="userSpaceOnUse">
<stop stop-color="white"/>
<stop offset="1" stop-color="white" stop-opacity="0"/>
</linearGradient>
</defs>
</svg>
