<svg width="58" height="46" viewBox="0 0 58 46" fill="none" xmlns="http://www.w3.org/2000/svg">
<path d="M16.5639 31.8271L10.73 25.9828C9.58688 24.8401 8.07163 24.2106 6.45737 24.2106H2.41663C1.74963 24.2106 1.20826 24.7529 1.20826 25.4211C1.20826 26.0893 1.74963 26.6316 2.41663 26.6316H6.45726C7.40939 26.6316 8.34464 27.0189 9.01889 27.6944L12.7913 31.4736H2.41663C1.74963 31.4736 1.20826 32.0159 1.20826 32.6842C1.20826 33.3524 1.74963 33.8947 2.41663 33.8947H15.7083C16.1964 33.8947 16.6363 33.5993 16.8248 33.1466C17.0133 32.6939 16.9094 32.1734 16.5639 31.8271Z" fill="#C6913B"/>
<path d="M16.5639 31.8271L10.73 25.9828C9.58688 24.8401 8.07163 24.2106 6.45737 24.2106H2.41663C1.74963 24.2106 1.20826 24.7529 1.20826 25.4211C1.20826 26.0893 1.74963 26.6316 2.41663 26.6316H6.45726C7.40939 26.6316 8.34464 27.0189 9.01889 27.6944L12.7913 31.4736H2.41663C1.74963 31.4736 1.20826 32.0159 1.20826 32.6842C1.20826 33.3524 1.74963 33.8947 2.41663 33.8947H15.7083C16.1964 33.8947 16.6363 33.5993 16.8248 33.1466C17.0133 32.6939 16.9094 32.1734 16.5639 31.8271Z" fill="url(#paint0_linear)"/>
<path d="M15.7084 37.5263C15.0414 37.5263 14.5 38.0686 14.5 38.7369V42.3684C14.5 43.0366 13.9563 43.579 13.2916 43.579H6.04163C5.37701 43.579 4.83326 43.0366 4.83326 42.3684V37.5263C4.83326 36.8581 4.29189 36.3157 3.62489 36.3157C2.95789 36.3157 2.41663 36.8581 2.41663 37.5263V42.3684C2.41663 44.3707 4.04301 46 6.04163 46H13.2916C15.2902 46 16.9166 44.3707 16.9166 42.3684V38.7369C16.9166 38.0686 16.3754 37.5263 15.7084 37.5263Z" fill="#C6913B"/>
<path d="M15.7084 37.5263C15.0414 37.5263 14.5 38.0686 14.5 38.7369V42.3684C14.5 43.0366 13.9563 43.579 13.2916 43.579H6.04163C5.37701 43.579 4.83326 43.0366 4.83326 42.3684V37.5263C4.83326 36.8581 4.29189 36.3157 3.62489 36.3157C2.95789 36.3157 2.41663 36.8581 2.41663 37.5263V42.3684C2.41663 44.3707 4.04301 46 6.04163 46H13.2916C15.2902 46 16.9166 44.3707 16.9166 42.3684V38.7369C16.9166 38.0686 16.3754 37.5263 15.7084 37.5263Z" fill="url(#paint1_linear)"/>
<path d="M52.5166 17.0854C49.1865 15.3399 41.7117 14.5264 29 14.5264C16.2883 14.5264 8.81362 15.3399 5.48338 17.0854C1.68925 19.0706 0 22.3875 0 27.8421C0 33.0861 1.19863 37.6474 1.24938 37.8386C1.38951 38.3688 1.86801 38.7369 2.41663 38.7369H13.0065L17.5836 41.0296C17.7528 41.1144 17.9389 41.158 18.125 41.158H39.875C40.0611 41.158 40.2471 41.1144 40.4139 41.0296L44.9935 38.7369H55.5834C56.132 38.7369 56.6105 38.3688 56.7506 37.8386C56.8014 37.6474 58 33.0861 58 27.8421C58 22.3875 56.3107 19.0706 52.5166 17.0854ZM54.6287 36.3157H44.7107C44.5222 36.3157 44.3361 36.3593 44.1694 36.4441L39.5898 38.7369H18.4101L13.833 36.4441C13.6639 36.3593 13.4777 36.3157 13.2916 36.3157H3.37363C3.03775 34.7736 2.41663 31.4422 2.41663 27.842C2.41663 23.2831 3.62976 20.7871 6.59988 19.2303C9.49501 17.7147 17.0303 16.9473 29 16.9473C40.9697 16.9473 48.5049 17.7148 51.4001 19.2303C54.3702 20.787 55.5834 23.2831 55.5834 27.842C55.5834 31.4422 54.9622 34.7736 54.6287 36.3157Z" fill="#C6913B"/>
<path d="M52.5166 17.0854C49.1865 15.3399 41.7117 14.5264 29 14.5264C16.2883 14.5264 8.81362 15.3399 5.48338 17.0854C1.68925 19.0706 0 22.3875 0 27.8421C0 33.0861 1.19863 37.6474 1.24938 37.8386C1.38951 38.3688 1.86801 38.7369 2.41663 38.7369H13.0065L17.5836 41.0296C17.7528 41.1144 17.9389 41.158 18.125 41.158H39.875C40.0611 41.158 40.2471 41.1144 40.4139 41.0296L44.9935 38.7369H55.5834C56.132 38.7369 56.6105 38.3688 56.7506 37.8386C56.8014 37.6474 58 33.0861 58 27.8421C58 22.3875 56.3107 19.0706 52.5166 17.0854ZM54.6287 36.3157H44.7107C44.5222 36.3157 44.3361 36.3593 44.1694 36.4441L39.5898 38.7369H18.4101L13.833 36.4441C13.6639 36.3593 13.4777 36.3157 13.2916 36.3157H3.37363C3.03775 34.7736 2.41663 31.4422 2.41663 27.842C2.41663 23.2831 3.62976 20.7871 6.59988 19.2303C9.49501 17.7147 17.0303 16.9473 29 16.9473C40.9697 16.9473 48.5049 17.7148 51.4001 19.2303C54.3702 20.787 55.5834 23.2831 55.5834 27.842C55.5834 31.4422 54.9622 34.7736 54.6287 36.3157Z" fill="url(#paint2_linear)"/>
<path d="M55.5834 31.4737H45.2086L48.9786 27.6945C49.6553 27.019 50.5881 26.6317 51.5427 26.6317H55.5834C56.2504 26.6317 56.7917 26.0893 56.7917 25.4211C56.7917 24.7529 56.2504 24.2106 55.5834 24.2106H51.5427C49.9284 24.2106 48.4131 24.8401 47.2701 25.9828L41.4362 31.8272C41.0931 32.1735 40.9891 32.6939 41.1752 33.1467C41.3614 33.5995 41.8036 33.8948 42.2917 33.8948H55.5834C56.2504 33.8948 56.7917 33.3525 56.7917 32.6843C56.7916 32.0159 56.2504 31.4737 55.5834 31.4737Z" fill="#C6913B"/>
<path d="M55.5834 31.4737H45.2086L48.9786 27.6945C49.6553 27.019 50.5881 26.6317 51.5427 26.6317H55.5834C56.2504 26.6317 56.7917 26.0893 56.7917 25.4211C56.7917 24.7529 56.2504 24.2106 55.5834 24.2106H51.5427C49.9284 24.2106 48.4131 24.8401 47.2701 25.9828L41.4362 31.8272C41.0931 32.1735 40.9891 32.6939 41.1752 33.1467C41.3614 33.5995 41.8036 33.8948 42.2917 33.8948H55.5834C56.2504 33.8948 56.7917 33.3525 56.7917 32.6843C56.7916 32.0159 56.2504 31.4737 55.5834 31.4737Z" fill="url(#paint3_linear)"/>
<path d="M43.3864 24.9078C43.1858 24.4817 42.7605 24.2106 42.2916 24.2106H15.7084C15.2395 24.2106 14.8142 24.4817 14.6136 24.9078C14.4155 25.3315 14.4783 25.8351 14.7804 26.1958L20.822 33.4589C21.0516 33.7349 21.3924 33.8947 21.75 33.8947H36.25C36.6076 33.8947 36.9484 33.7349 37.178 33.4589L43.2196 26.1958C43.5217 25.835 43.5846 25.3315 43.3864 24.9078ZM35.6821 31.4737H22.3155L18.2869 26.6316H39.7106L35.6821 31.4737Z" fill="#C6913B"/>
<path d="M43.3864 24.9078C43.1858 24.4817 42.7605 24.2106 42.2916 24.2106H15.7084C15.2395 24.2106 14.8142 24.4817 14.6136 24.9078C14.4155 25.3315 14.4783 25.8351 14.7804 26.1958L20.822 33.4589C21.0516 33.7349 21.3924 33.8947 21.75 33.8947H36.25C36.6076 33.8947 36.9484 33.7349 37.178 33.4589L43.2196 26.1958C43.5217 25.835 43.5846 25.3315 43.3864 24.9078ZM35.6821 31.4737H22.3155L18.2869 26.6316H39.7106L35.6821 31.4737Z" fill="url(#paint4_linear)"/>
<path d="M53.0676 17.6761C51.6925 14.5094 47.0912 4.07224 45.4914 2.70915C43.4976 1.01196 37.787 0 30.2084 0H27.7917C20.2131 0 14.5025 1.01196 12.5087 2.70677C10.9089 4.06986 6.30512 14.507 4.93249 17.6737C4.66911 18.2887 4.94937 19.0005 5.56086 19.2667C6.16986 19.5331 6.88523 19.2546 7.15099 18.6397C9.87937 12.3475 13.2169 5.35544 14.0747 4.55411C15.0051 3.76242 18.9419 2.42112 27.7917 2.42112H30.2084C39.0582 2.42112 42.995 3.76242 43.9205 4.54923C44.7832 5.35544 48.1206 12.345 50.8491 18.6397C51.0472 19.0973 51.4944 19.3684 51.9584 19.3684C52.1179 19.3684 52.2846 19.337 52.4392 19.2691C53.0506 19.0029 53.331 18.2886 53.0676 17.6761Z" fill="#C6913B"/>
<path d="M53.0676 17.6761C51.6925 14.5094 47.0912 4.07224 45.4914 2.70915C43.4976 1.01196 37.787 0 30.2084 0H27.7917C20.2131 0 14.5025 1.01196 12.5087 2.70677C10.9089 4.06986 6.30512 14.507 4.93249 17.6737C4.66911 18.2887 4.94937 19.0005 5.56086 19.2667C6.16986 19.5331 6.88523 19.2546 7.15099 18.6397C9.87937 12.3475 13.2169 5.35544 14.0747 4.55411C15.0051 3.76242 18.9419 2.42112 27.7917 2.42112H30.2084C39.0582 2.42112 42.995 3.76242 43.9205 4.54923C44.7832 5.35544 48.1206 12.345 50.8491 18.6397C51.0472 19.0973 51.4944 19.3684 51.9584 19.3684C52.1179 19.3684 52.2846 19.337 52.4392 19.2691C53.0506 19.0029 53.331 18.2886 53.0676 17.6761Z" fill="url(#paint5_linear)"/>
<path d="M54.375 36.3157C53.708 36.3157 53.1666 36.8581 53.1666 37.5263V42.3684C53.1666 43.0366 52.6229 43.579 51.9583 43.579H44.7083C44.0436 43.579 43.4999 43.0366 43.4999 42.3684V38.7369C43.4999 38.0686 42.9585 37.5263 42.2915 37.5263C41.6245 37.5263 41.0831 38.0686 41.0831 38.7369V42.3684C41.0831 44.3707 42.7095 46 44.7081 46H51.9581C53.9568 46 55.5831 44.3707 55.5831 42.3684V37.5263C55.5834 36.8581 55.042 36.3157 54.375 36.3157Z" fill="#C6913B"/>
<path d="M54.375 36.3157C53.708 36.3157 53.1666 36.8581 53.1666 37.5263V42.3684C53.1666 43.0366 52.6229 43.579 51.9583 43.579H44.7083C44.0436 43.579 43.4999 43.0366 43.4999 42.3684V38.7369C43.4999 38.0686 42.9585 37.5263 42.2915 37.5263C41.6245 37.5263 41.0831 38.0686 41.0831 38.7369V42.3684C41.0831 44.3707 42.7095 46 44.7081 46H51.9581C53.9568 46 55.5831 44.3707 55.5831 42.3684V37.5263C55.5834 36.8581 55.042 36.3157 54.375 36.3157Z" fill="url(#paint6_linear)"/>
<defs>
<linearGradient id="paint0_linear" x1="0" y1="0" x2="35.5342" y2="53.6099" gradientUnits="userSpaceOnUse">
<stop stop-color="white"/>
<stop offset="1" stop-color="white" stop-opacity="0"/>
</linearGradient>
<linearGradient id="paint1_linear" x1="0" y1="0" x2="35.5342" y2="53.6099" gradientUnits="userSpaceOnUse">
<stop stop-color="white"/>
<stop offset="1" stop-color="white" stop-opacity="0"/>
</linearGradient>
<linearGradient id="paint2_linear" x1="0" y1="0" x2="35.5342" y2="53.6099" gradientUnits="userSpaceOnUse">
<stop stop-color="white"/>
<stop offset="1" stop-color="white" stop-opacity="0"/>
</linearGradient>
<linearGradient id="paint3_linear" x1="0" y1="0" x2="35.5342" y2="53.6099" gradientUnits="userSpaceOnUse">
<stop stop-color="white"/>
<stop offset="1" stop-color="white" stop-opacity="0"/>
</linearGradient>
<linearGradient id="paint4_linear" x1="0" y1="0" x2="35.5342" y2="53.6099" gradientUnits="userSpaceOnUse">
<stop stop-color="white"/>
<stop offset="1" stop-color="white" stop-opacity="0"/>
</linearGradient>
<linearGradient id="paint5_linear" x1="0" y1="0" x2="35.5342" y2="53.6099" gradientUnits="userSpaceOnUse">
<stop stop-color="white"/>
<stop offset="1" stop-color="white" stop-opacity="0"/>
</linearGradient>
<linearGradient id="paint6_linear" x1="0" y1="0" x2="35.5342" y2="53.6099" gradientUnits="userSpaceOnUse">
<stop stop-color="white"/>
<stop offset="1" stop-color="white" stop-opacity="0"/>
</linearGradient>
</defs>
</svg>
