<svg width="58" height="58" viewBox="0 0 58 58" fill="none" xmlns="http://www.w3.org/2000/svg">
<path d="M40.2258 45.8387H17.7742V47.7097H40.2258V45.8387Z" fill="#C6913B"/>
<path d="M40.2258 45.8387H17.7742V47.7097H40.2258V45.8387Z" fill="url(#paint0_linear)"/>
<path d="M10.2903 45.8387H6.54839V47.7097H10.2903V45.8387Z" fill="#C6913B"/>
<path d="M10.2903 45.8387H6.54839V47.7097H10.2903V45.8387Z" fill="url(#paint1_linear)"/>
<path d="M51.4516 45.8387H47.7097V47.7097H51.4516V45.8387Z" fill="#C6913B"/>
<path d="M51.4516 45.8387H47.7097V47.7097H51.4516V45.8387Z" fill="url(#paint2_linear)"/>
<path d="M58 25.2581V7.48387H54.2581V0H47.7097V4.8299C44.9088 3.17597 38.3212 0 29 0C19.6788 0 13.0912 3.17597 10.2903 4.8299V0H3.74194V7.48387H0V25.2581H3.74194V30.6072C2.58194 31.4753 1.87097 32.8364 1.87097 34.3397V45.8387C1.87097 49.1307 4.31539 51.8557 7.48387 52.3123V55.1936C7.48387 56.7408 8.74303 58 10.2903 58H14.0323C15.5795 58 16.8387 56.7408 16.8387 55.1936V52.3871H41.1613V55.1936C41.1613 56.7408 42.4205 58 43.9677 58H47.7097C49.257 58 50.5161 56.7408 50.5161 55.1936V52.3123C53.6846 51.8557 56.129 49.1307 56.129 45.8387V34.3397C56.129 32.8364 55.4181 31.4744 54.2581 30.6072V25.2581H58ZM54.2581 9.35484H56.129V23.3871H54.2581V9.35484ZM49.5806 1.87097H52.3871V4.67742H49.5806V1.87097ZM49.5806 6.54839H52.3871V9.35484H49.5806V6.54839ZM49.5806 14.0323V11.2258H52.3871V18.8818C52.0934 18.777 51.7809 18.7097 51.4516 18.7097H50.2748L49.9277 15.414C49.8763 14.9219 49.7341 14.4645 49.5451 14.0323H49.5806ZM52.3871 21.5161V29.6764L51.3871 29.2769L50.4722 20.5806H51.4516C51.9671 20.5806 52.3871 21.0007 52.3871 21.5161ZM10.2903 7.03952C11.9162 5.96277 18.7742 1.87097 29 1.87097C39.194 1.87097 46.0773 5.96465 47.7097 7.04045V11.9078C46.9987 11.4756 46.1661 11.2258 45.2765 11.2258H43.9677V7.48387H38.3548V11.2258H19.6452V7.48387H14.0323V11.2258H12.7235C11.8339 11.2258 11.0013 11.4756 10.2903 11.9078V7.03952ZM42.0968 9.35484V11.2258H40.2258V9.35484H42.0968ZM17.7742 9.35484V11.2258H15.9032V9.35484H17.7742ZM9.93297 15.6095C10.0836 14.1773 11.2838 13.0968 12.7235 13.0968H45.2765C46.7171 13.0968 47.9164 14.1773 48.067 15.6095L49.4226 28.4911L46.4421 27.2984C46.1194 26.4779 45.5712 25.7773 44.8742 25.2581H44.9032V16.8387C44.9032 15.8069 44.0641 14.9677 43.0323 14.9677H14.9677C13.9359 14.9677 13.0968 15.8069 13.0968 16.8387V25.2581H13.1258C12.4288 25.7773 11.8806 26.4779 11.5579 27.2984L8.57745 28.4911L9.93297 15.6095ZM36.8412 28.0645L35.9057 29.9355H21.9034L20.0325 28.0645H14.9677V41.1613H13.0968V29C13.0968 27.4527 14.3559 26.1935 15.9032 26.1935H42.0968C43.6441 26.1935 44.9032 27.4527 44.9032 29V41.1613H43.0323V28.0645H36.8412ZM41.1613 39.2903V41.1613H16.8387V39.2903H22.4516V37.4194H16.8387V35.5484H41.1613V37.4194H35.5484V39.2903H41.1613ZM16.8387 33.6774V29.9355H19.2579L21.1288 31.8065H37.062L37.9975 29.9355H41.1613V33.6774H16.8387ZM14.9677 24.4171V16.8387H43.0323V24.4171C42.7301 24.3553 42.4167 24.3226 42.0968 24.3226H15.9032C15.5833 24.3226 15.2699 24.3553 14.9677 24.4171ZM5.6129 1.87097H8.41935V4.67742H5.6129V1.87097ZM5.6129 6.54839H8.41935V9.35484H5.6129V6.54839ZM5.6129 11.2258H8.41935V14.0323H8.45397C8.26593 14.4635 8.12374 14.9219 8.07135 15.414L7.72523 18.7097H6.54839C6.2191 18.7097 5.90665 18.777 5.6129 18.8818V11.2258ZM5.6129 21.5161C5.6129 21.0007 6.03294 20.5806 6.54839 20.5806H7.52784L6.61294 29.276L5.6129 29.6764V21.5161ZM1.87097 23.3871V9.35484H3.74194V23.3871H1.87097ZM3.74194 34.3397C3.74194 33.1854 4.43419 32.1629 5.50626 31.7344L11.2258 29.4462V41.1613H3.74194V34.3397ZM14.9677 55.1936C14.9677 55.7099 14.5477 56.129 14.0323 56.129H10.2903C9.77487 56.129 9.35484 55.7099 9.35484 55.1936V52.3871H14.9677V55.1936ZM48.6452 55.1936C48.6452 55.7099 48.2251 56.129 47.7097 56.129H43.9677C43.4523 56.129 43.0323 55.7099 43.0323 55.1936V52.3871H48.6452V55.1936ZM54.2581 45.8387C54.2581 48.4178 52.1598 50.5161 49.5806 50.5161H8.41935C5.84023 50.5161 3.74194 48.4178 3.74194 45.8387V43.0323H54.2581V45.8387ZM54.2581 41.1613H46.7742V29.4462L52.4937 31.7344C53.5658 32.1629 54.2581 33.1854 54.2581 34.3397V41.1613Z" fill="#C6913B"/>
<path d="M58 25.2581V7.48387H54.2581V0H47.7097V4.8299C44.9088 3.17597 38.3212 0 29 0C19.6788 0 13.0912 3.17597 10.2903 4.8299V0H3.74194V7.48387H0V25.2581H3.74194V30.6072C2.58194 31.4753 1.87097 32.8364 1.87097 34.3397V45.8387C1.87097 49.1307 4.31539 51.8557 7.48387 52.3123V55.1936C7.48387 56.7408 8.74303 58 10.2903 58H14.0323C15.5795 58 16.8387 56.7408 16.8387 55.1936V52.3871H41.1613V55.1936C41.1613 56.7408 42.4205 58 43.9677 58H47.7097C49.257 58 50.5161 56.7408 50.5161 55.1936V52.3123C53.6846 51.8557 56.129 49.1307 56.129 45.8387V34.3397C56.129 32.8364 55.4181 31.4744 54.2581 30.6072V25.2581H58ZM54.2581 9.35484H56.129V23.3871H54.2581V9.35484ZM49.5806 1.87097H52.3871V4.67742H49.5806V1.87097ZM49.5806 6.54839H52.3871V9.35484H49.5806V6.54839ZM49.5806 14.0323V11.2258H52.3871V18.8818C52.0934 18.777 51.7809 18.7097 51.4516 18.7097H50.2748L49.9277 15.414C49.8763 14.9219 49.7341 14.4645 49.5451 14.0323H49.5806ZM52.3871 21.5161V29.6764L51.3871 29.2769L50.4722 20.5806H51.4516C51.9671 20.5806 52.3871 21.0007 52.3871 21.5161ZM10.2903 7.03952C11.9162 5.96277 18.7742 1.87097 29 1.87097C39.194 1.87097 46.0773 5.96465 47.7097 7.04045V11.9078C46.9987 11.4756 46.1661 11.2258 45.2765 11.2258H43.9677V7.48387H38.3548V11.2258H19.6452V7.48387H14.0323V11.2258H12.7235C11.8339 11.2258 11.0013 11.4756 10.2903 11.9078V7.03952ZM42.0968 9.35484V11.2258H40.2258V9.35484H42.0968ZM17.7742 9.35484V11.2258H15.9032V9.35484H17.7742ZM9.93297 15.6095C10.0836 14.1773 11.2838 13.0968 12.7235 13.0968H45.2765C46.7171 13.0968 47.9164 14.1773 48.067 15.6095L49.4226 28.4911L46.4421 27.2984C46.1194 26.4779 45.5712 25.7773 44.8742 25.2581H44.9032V16.8387C44.9032 15.8069 44.0641 14.9677 43.0323 14.9677H14.9677C13.9359 14.9677 13.0968 15.8069 13.0968 16.8387V25.2581H13.1258C12.4288 25.7773 11.8806 26.4779 11.5579 27.2984L8.57745 28.4911L9.93297 15.6095ZM36.8412 28.0645L35.9057 29.9355H21.9034L20.0325 28.0645H14.9677V41.1613H13.0968V29C13.0968 27.4527 14.3559 26.1935 15.9032 26.1935H42.0968C43.6441 26.1935 44.9032 27.4527 44.9032 29V41.1613H43.0323V28.0645H36.8412ZM41.1613 39.2903V41.1613H16.8387V39.2903H22.4516V37.4194H16.8387V35.5484H41.1613V37.4194H35.5484V39.2903H41.1613ZM16.8387 33.6774V29.9355H19.2579L21.1288 31.8065H37.062L37.9975 29.9355H41.1613V33.6774H16.8387ZM14.9677 24.4171V16.8387H43.0323V24.4171C42.7301 24.3553 42.4167 24.3226 42.0968 24.3226H15.9032C15.5833 24.3226 15.2699 24.3553 14.9677 24.4171ZM5.6129 1.87097H8.41935V4.67742H5.6129V1.87097ZM5.6129 6.54839H8.41935V9.35484H5.6129V6.54839ZM5.6129 11.2258H8.41935V14.0323H8.45397C8.26593 14.4635 8.12374 14.9219 8.07135 15.414L7.72523 18.7097H6.54839C6.2191 18.7097 5.90665 18.777 5.6129 18.8818V11.2258ZM5.6129 21.5161C5.6129 21.0007 6.03294 20.5806 6.54839 20.5806H7.52784L6.61294 29.276L5.6129 29.6764V21.5161ZM1.87097 23.3871V9.35484H3.74194V23.3871H1.87097ZM3.74194 34.3397C3.74194 33.1854 4.43419 32.1629 5.50626 31.7344L11.2258 29.4462V41.1613H3.74194V34.3397ZM14.9677 55.1936C14.9677 55.7099 14.5477 56.129 14.0323 56.129H10.2903C9.77487 56.129 9.35484 55.7099 9.35484 55.1936V52.3871H14.9677V55.1936ZM48.6452 55.1936C48.6452 55.7099 48.2251 56.129 47.7097 56.129H43.9677C43.4523 56.129 43.0323 55.7099 43.0323 55.1936V52.3871H48.6452V55.1936ZM54.2581 45.8387C54.2581 48.4178 52.1598 50.5161 49.5806 50.5161H8.41935C5.84023 50.5161 3.74194 48.4178 3.74194 45.8387V43.0323H54.2581V45.8387ZM54.2581 41.1613H46.7742V29.4462L52.4937 31.7344C53.5658 32.1629 54.2581 33.1854 54.2581 34.3397V41.1613Z" fill="url(#paint3_linear)"/>
<path d="M9.35484 37.4194H7.48387V39.2903H9.35484V37.4194Z" fill="#C6913B"/>
<path d="M9.35484 37.4194H7.48387V39.2903H9.35484V37.4194Z" fill="url(#paint4_linear)"/>
<path d="M9.35484 33.6774H7.48387V35.5484H9.35484V33.6774Z" fill="#C6913B"/>
<path d="M9.35484 33.6774H7.48387V35.5484H9.35484V33.6774Z" fill="url(#paint5_linear)"/>
<path d="M50.5161 37.4194H48.6452V39.2903H50.5161V37.4194Z" fill="#C6913B"/>
<path d="M50.5161 37.4194H48.6452V39.2903H50.5161V37.4194Z" fill="url(#paint6_linear)"/>
<path d="M50.5161 33.6774H48.6452V35.5484H50.5161V33.6774Z" fill="#C6913B"/>
<path d="M50.5161 33.6774H48.6452V35.5484H50.5161V33.6774Z" fill="url(#paint7_linear)"/>
<path d="M33.6774 37.4194H24.3226V39.2903H33.6774V37.4194Z" fill="#C6913B"/>
<path d="M33.6774 37.4194H24.3226V39.2903H33.6774V37.4194Z" fill="url(#paint8_linear)"/>
<path d="M25.2581 18.7097H16.8387V20.5806H25.2581V18.7097Z" fill="#C6913B"/>
<path d="M25.2581 18.7097H16.8387V20.5806H25.2581V18.7097Z" fill="url(#paint9_linear)"/>
<path d="M29 18.7097H27.129V20.5806H29V18.7097Z" fill="#C6913B"/>
<path d="M29 18.7097H27.129V20.5806H29V18.7097Z" fill="url(#paint10_linear)"/>
<defs>
<linearGradient id="paint0_linear" x1="0" y1="0" x2="47.8734" y2="57.2827" gradientUnits="userSpaceOnUse">
<stop stop-color="white"/>
<stop offset="1" stop-color="white" stop-opacity="0"/>
</linearGradient>
<linearGradient id="paint1_linear" x1="0" y1="0" x2="47.8734" y2="57.2827" gradientUnits="userSpaceOnUse">
<stop stop-color="white"/>
<stop offset="1" stop-color="white" stop-opacity="0"/>
</linearGradient>
<linearGradient id="paint2_linear" x1="0" y1="0" x2="47.8734" y2="57.2827" gradientUnits="userSpaceOnUse">
<stop stop-color="white"/>
<stop offset="1" stop-color="white" stop-opacity="0"/>
</linearGradient>
<linearGradient id="paint3_linear" x1="0" y1="0" x2="47.8734" y2="57.2827" gradientUnits="userSpaceOnUse">
<stop stop-color="white"/>
<stop offset="1" stop-color="white" stop-opacity="0"/>
</linearGradient>
<linearGradient id="paint4_linear" x1="0" y1="0" x2="47.8734" y2="57.2827" gradientUnits="userSpaceOnUse">
<stop stop-color="white"/>
<stop offset="1" stop-color="white" stop-opacity="0"/>
</linearGradient>
<linearGradient id="paint5_linear" x1="0" y1="0" x2="47.8734" y2="57.2827" gradientUnits="userSpaceOnUse">
<stop stop-color="white"/>
<stop offset="1" stop-color="white" stop-opacity="0"/>
</linearGradient>
<linearGradient id="paint6_linear" x1="0" y1="0" x2="47.8734" y2="57.2827" gradientUnits="userSpaceOnUse">
<stop stop-color="white"/>
<stop offset="1" stop-color="white" stop-opacity="0"/>
</linearGradient>
<linearGradient id="paint7_linear" x1="0" y1="0" x2="47.8734" y2="57.2827" gradientUnits="userSpaceOnUse">
<stop stop-color="white"/>
<stop offset="1" stop-color="white" stop-opacity="0"/>
</linearGradient>
<linearGradient id="paint8_linear" x1="0" y1="0" x2="47.8734" y2="57.2827" gradientUnits="userSpaceOnUse">
<stop stop-color="white"/>
<stop offset="1" stop-color="white" stop-opacity="0"/>
</linearGradient>
<linearGradient id="paint9_linear" x1="0" y1="0" x2="47.8734" y2="57.2827" gradientUnits="userSpaceOnUse">
<stop stop-color="white"/>
<stop offset="1" stop-color="white" stop-opacity="0"/>
</linearGradient>
<linearGradient id="paint10_linear" x1="0" y1="0" x2="47.8734" y2="57.2827" gradientUnits="userSpaceOnUse">
<stop stop-color="white"/>
<stop offset="1" stop-color="white" stop-opacity="0"/>
</linearGradient>
</defs>
</svg>
